<svg width="402" height="317" viewBox="0 0 402 317" fill="none" xmlns="http://www.w3.org/2000/svg">
<path fill-rule="evenodd" clip-rule="evenodd" d="M199.458 135.75C187.403 135.75 180.053 136.081 175.794 136.398C173.822 136.542 172.479 137.858 172.287 139.686C171.986 142.549 171.708 146.787 171.708 152.708C171.708 158.63 171.984 162.865 172.287 165.731C172.479 167.559 173.822 168.874 175.795 169.019C180.053 169.335 187.403 169.667 199.458 169.667C200.517 169.667 201.54 169.664 202.526 169.659C203.344 169.655 204.13 169.976 204.711 170.551C205.292 171.127 205.621 171.909 205.625 172.727C205.629 173.545 205.308 174.331 204.733 174.912C204.158 175.493 203.375 175.822 202.557 175.826C201.56 175.831 200.527 175.833 199.458 175.833C187.298 175.833 179.791 175.499 175.339 175.17C170.534 174.814 166.675 171.31 166.154 166.378C165.825 163.273 165.542 158.82 165.542 152.708C165.542 146.597 165.825 142.143 166.154 139.038C166.675 134.107 170.532 130.602 175.339 130.246C179.791 129.918 187.298 129.583 199.458 129.583C211.619 129.583 219.125 129.918 223.578 130.246C228.383 130.602 232.242 134.107 232.763 139.038C233.091 142.143 233.375 146.597 233.375 152.708C233.375 154.404 233.353 155.969 233.313 157.415C233.278 158.223 232.927 158.984 232.335 159.536C231.744 160.087 230.96 160.384 230.151 160.362C229.343 160.341 228.576 160.003 228.014 159.421C227.453 158.839 227.142 158.06 227.15 157.252C227.189 155.864 227.208 154.35 227.208 152.708C227.208 146.787 226.932 142.552 226.63 139.686C226.438 137.858 225.095 136.542 223.121 136.398C218.863 136.081 211.514 135.75 199.458 135.75ZM182.5 145.771C184.34 145.771 186.105 146.502 187.406 147.803C188.707 149.104 189.438 150.868 189.438 152.708C189.438 154.548 188.707 156.313 187.406 157.614C186.105 158.915 184.34 159.646 182.5 159.646C180.66 159.646 178.896 158.915 177.595 157.614C176.293 156.313 175.563 154.548 175.563 152.708C175.563 150.868 176.293 149.104 177.595 147.803C178.896 146.502 180.66 145.771 182.5 145.771ZM206.396 152.708C206.396 150.868 205.665 149.104 204.364 147.803C203.063 146.502 201.298 145.771 199.458 145.771C197.618 145.771 195.854 146.502 194.553 147.803C193.252 149.104 192.521 150.868 192.521 152.708C192.521 154.548 193.252 156.313 194.553 157.614C195.854 158.915 197.618 159.646 199.458 159.646C201.298 159.646 203.063 158.915 204.364 157.614C205.665 156.313 206.396 154.548 206.396 152.708ZM216.417 145.771C218.257 145.771 220.021 146.502 221.322 147.803C222.623 149.104 223.354 150.868 223.354 152.708C223.354 154.548 222.623 156.313 221.322 157.614C220.021 158.915 218.257 159.646 216.417 159.646C214.577 159.646 212.812 158.915 211.511 157.614C210.21 156.313 209.479 154.548 209.479 152.708C209.479 150.868 210.21 149.104 211.511 147.803C212.812 146.502 214.577 145.771 216.417 145.771ZM221.042 162.729C218.535 162.729 216.125 163.695 214.312 165.425C212.499 167.155 211.422 169.517 211.305 172.021L211.177 174.756C208.095 175.53 205.904 178.066 205.727 181.462C205.655 182.925 205.621 184.39 205.625 185.854C205.625 187.858 205.685 189.445 205.773 190.694C206.031 194.37 208.77 196.889 212.308 197.153C214.261 197.301 217.063 197.417 221.042 197.417C225.021 197.417 227.822 197.301 229.777 197.155C233.313 196.889 236.051 194.37 236.31 190.694C236.398 189.445 236.458 187.86 236.458 185.854C236.458 183.849 236.398 182.264 236.31 181.015C236.081 177.74 233.882 175.385 230.905 174.72L230.779 172.021C230.662 169.517 229.584 167.155 227.771 165.425C225.958 163.695 223.548 162.729 221.042 162.729ZM221.042 174.292C222.398 174.292 223.618 174.306 224.714 174.329L224.618 172.309C224.572 171.392 224.175 170.528 223.509 169.895C222.843 169.263 221.96 168.91 221.042 168.91C220.123 168.91 219.24 169.263 218.575 169.895C217.909 170.528 217.512 171.392 217.465 172.309L217.369 174.329C218.467 174.306 219.687 174.292 221.042 174.292ZM221.042 181.229C221.859 181.229 222.644 181.554 223.222 182.132C223.8 182.711 224.125 183.495 224.125 184.313V187.396C224.125 188.214 223.8 188.998 223.222 189.576C222.644 190.154 221.859 190.479 221.042 190.479C220.224 190.479 219.44 190.154 218.861 189.576C218.283 188.998 217.958 188.214 217.958 187.396V184.313C217.958 183.495 218.283 182.711 218.861 182.132C219.44 181.554 220.224 181.229 221.042 181.229Z" fill="white"/>
<circle cx="201" cy="158.5" r="125.5" stroke="url(#paint0_radial_1579_10671)" stroke-opacity="0.09" stroke-width="65"/>
<rect y="159" width="403" height="135" fill="url(#paint1_linear_1579_10671)"/>
<defs>
<radialGradient id="paint0_radial_1579_10671" cx="0" cy="0" r="1" gradientUnits="userSpaceOnUse" gradientTransform="translate(201 158.5) rotate(92.283) scale(126.195)">
<stop stop-color="#FFF5C8"/>
<stop offset="0.774038" stop-color="#FFF5C8"/>
<stop offset="1" stop-color="#FFF5C8" stop-opacity="0"/>
</radialGradient>
<linearGradient id="paint1_linear_1579_10671" x1="202.132" y1="285.562" x2="202.132" y2="167.438" gradientUnits="userSpaceOnUse">
<stop stop-color="#240E56"/>
<stop offset="0.574858" stop-color="#240E56"/>
<stop offset="1" stop-color="#240E56" stop-opacity="0"/>
</linearGradient>
</defs>
</svg>
