<svg width="326" height="483" viewBox="0 0 326 483" fill="none" xmlns="http://www.w3.org/2000/svg">
<g clip-path="url(#clip0_477_10236)">
<rect width="326" height="483" rx="20" fill="#140831"/>
<g filter="url(#filter0_df_477_10236)">
<ellipse cx="163" cy="-76.5" rx="275.556" ry="247.5" fill="#B797EC"/>
</g>
<path d="M65.4408 292.5V286.26L59.8968 275.7H62.6088L66.9528 284.532H66.3528L70.6728 275.7H73.3608L67.8408 286.26V292.5H65.4408ZM78.8278 292.788C77.6918 292.788 76.6678 292.524 75.7558 291.996C74.8598 291.468 74.1478 290.732 73.6198 289.788C73.1078 288.828 72.8518 287.724 72.8518 286.476C72.8518 285.196 73.1158 284.084 73.6438 283.14C74.1718 282.18 74.8918 281.436 75.8038 280.908C76.7158 280.38 77.7398 280.116 78.8758 280.116C80.0278 280.116 81.0518 280.38 81.9478 280.908C82.8438 281.436 83.5478 282.172 84.0598 283.116C84.5878 284.06 84.8518 285.172 84.8518 286.452C84.8518 287.732 84.5878 288.844 84.0598 289.788C83.5478 290.732 82.8358 291.468 81.9238 291.996C81.0118 292.524 79.9798 292.788 78.8278 292.788ZM78.8278 290.724C79.4838 290.724 80.0758 290.564 80.6038 290.244C81.1478 289.924 81.5798 289.452 81.8998 288.828C82.2358 288.188 82.4038 287.396 82.4038 286.452C82.4038 285.508 82.2438 284.724 81.9238 284.1C81.6038 283.46 81.1718 282.98 80.6278 282.66C80.0998 282.34 79.5158 282.18 78.8758 282.18C78.2358 282.18 77.6438 282.34 77.0998 282.66C76.5558 282.98 76.1158 283.46 75.7798 284.1C75.4598 284.724 75.2998 285.508 75.2998 286.452C75.2998 287.396 75.4598 288.188 75.7798 288.828C76.1158 289.452 76.5478 289.924 77.0758 290.244C77.6198 290.564 78.2038 290.724 78.8278 290.724ZM92.115 292.788C91.171 292.788 90.347 292.596 89.643 292.212C88.955 291.828 88.419 291.252 88.035 290.484C87.667 289.716 87.483 288.748 87.483 287.58V280.404H89.883V287.316C89.883 288.452 90.131 289.308 90.627 289.884C91.123 290.46 91.835 290.748 92.763 290.748C93.387 290.748 93.947 290.596 94.443 290.292C94.955 289.988 95.355 289.548 95.643 288.972C95.931 288.396 96.075 287.692 96.075 286.86V280.404H98.475V292.5H96.339L96.171 290.436C95.803 291.172 95.267 291.748 94.563 292.164C93.859 292.58 93.043 292.788 92.115 292.788ZM118.702 292.5V275.7H121.102V292.5H118.702ZM108.022 292.5V275.7H110.422V292.5H108.022ZM110.014 284.916V282.948H119.23V284.916H110.014ZM128.503 292.788C127.511 292.788 126.687 292.62 126.031 292.284C125.375 291.948 124.887 291.5 124.567 290.94C124.247 290.364 124.087 289.748 124.087 289.092C124.087 288.292 124.295 287.612 124.711 287.052C125.127 286.476 125.719 286.036 126.487 285.732C127.255 285.428 128.175 285.276 129.247 285.276H132.391C132.391 284.572 132.287 283.988 132.079 283.524C131.871 283.06 131.559 282.716 131.143 282.492C130.743 282.252 130.231 282.132 129.607 282.132C128.887 282.132 128.271 282.308 127.759 282.66C127.247 282.996 126.927 283.5 126.799 284.172H124.399C124.495 283.324 124.783 282.604 125.263 282.012C125.759 281.404 126.391 280.94 127.159 280.62C127.927 280.284 128.743 280.116 129.607 280.116C130.743 280.116 131.695 280.316 132.463 280.716C133.231 281.116 133.807 281.684 134.191 282.42C134.591 283.14 134.791 284.004 134.791 285.012V292.5H132.703L132.511 290.46C132.335 290.78 132.127 291.084 131.887 291.372C131.647 291.66 131.359 291.908 131.023 292.116C130.703 292.324 130.327 292.484 129.895 292.596C129.479 292.724 129.015 292.788 128.503 292.788ZM128.959 290.844C129.471 290.844 129.935 290.74 130.351 290.532C130.767 290.324 131.119 290.044 131.407 289.692C131.711 289.324 131.935 288.916 132.079 288.468C132.239 288.004 132.327 287.532 132.343 287.052V286.98H129.487C128.799 286.98 128.239 287.068 127.807 287.244C127.391 287.404 127.087 287.628 126.895 287.916C126.703 288.204 126.607 288.54 126.607 288.924C126.607 289.324 126.695 289.668 126.871 289.956C127.063 290.228 127.335 290.444 127.687 290.604C128.039 290.764 128.463 290.844 128.959 290.844ZM140.865 292.5L136.329 280.404H138.849L142.281 290.196L145.737 280.404H148.209L143.697 292.5H140.865ZM155.256 292.788C154.104 292.788 153.08 292.524 152.184 291.996C151.288 291.468 150.584 290.732 150.072 289.788C149.576 288.844 149.328 287.748 149.328 286.5C149.328 285.22 149.576 284.108 150.072 283.164C150.584 282.204 151.288 281.46 152.184 280.932C153.08 280.388 154.12 280.116 155.304 280.116C156.488 280.116 157.504 280.38 158.352 280.908C159.2 281.436 159.856 282.14 160.32 283.02C160.784 283.884 161.016 284.844 161.016 285.9C161.016 286.06 161.008 286.236 160.992 286.428C160.992 286.604 160.984 286.804 160.968 287.028H151.08V285.324H158.616C158.568 284.316 158.232 283.532 157.608 282.972C156.984 282.396 156.208 282.108 155.28 282.108C154.624 282.108 154.024 282.26 153.48 282.564C152.936 282.852 152.496 283.284 152.16 283.86C151.84 284.42 151.68 285.132 151.68 285.996V286.668C151.68 287.564 151.84 288.324 152.16 288.948C152.496 289.556 152.936 290.02 153.48 290.34C154.024 290.644 154.616 290.796 155.256 290.796C156.024 290.796 156.656 290.628 157.152 290.292C157.648 289.956 158.016 289.5 158.256 288.924H160.656C160.448 289.66 160.096 290.324 159.6 290.916C159.104 291.492 158.488 291.948 157.752 292.284C157.032 292.62 156.2 292.788 155.256 292.788ZM169.943 292.5V275.7H175.631C176.959 275.7 178.047 275.924 178.895 276.372C179.743 276.82 180.367 277.42 180.767 278.172C181.183 278.908 181.391 279.748 181.391 280.692C181.391 281.588 181.183 282.42 180.767 283.188C180.367 283.94 179.735 284.548 178.871 285.012C178.007 285.46 176.903 285.684 175.559 285.684H172.343V292.5H169.943ZM178.775 292.5L175.151 285.036H177.791L181.559 292.5H178.775ZM172.343 283.86H175.463C176.647 283.86 177.519 283.572 178.079 282.996C178.639 282.404 178.919 281.652 178.919 280.74C178.919 279.812 178.647 279.076 178.103 278.532C177.559 277.988 176.679 277.716 175.463 277.716H172.343V283.86ZM189.124 292.788C187.972 292.788 186.948 292.524 186.052 291.996C185.156 291.468 184.452 290.732 183.94 289.788C183.444 288.844 183.196 287.748 183.196 286.5C183.196 285.22 183.444 284.108 183.94 283.164C184.452 282.204 185.156 281.46 186.052 280.932C186.948 280.388 187.988 280.116 189.172 280.116C190.356 280.116 191.372 280.38 192.22 280.908C193.068 281.436 193.724 282.14 194.188 283.02C194.652 283.884 194.884 284.844 194.884 285.9C194.884 286.06 194.876 286.236 194.86 286.428C194.86 286.604 194.852 286.804 194.836 287.028H184.948V285.324H192.484C192.436 284.316 192.1 283.532 191.476 282.972C190.852 282.396 190.076 282.108 189.148 282.108C188.492 282.108 187.892 282.26 187.348 282.564C186.804 282.852 186.364 283.284 186.028 283.86C185.708 284.42 185.548 285.132 185.548 285.996V286.668C185.548 287.564 185.708 288.324 186.028 288.948C186.364 289.556 186.804 290.02 187.348 290.34C187.892 290.644 188.484 290.796 189.124 290.796C189.892 290.796 190.524 290.628 191.02 290.292C191.516 289.956 191.884 289.5 192.124 288.924H194.524C194.316 289.66 193.964 290.324 193.468 290.916C192.972 291.492 192.356 291.948 191.62 292.284C190.9 292.62 190.068 292.788 189.124 292.788ZM201.558 292.788C200.566 292.788 199.742 292.62 199.086 292.284C198.43 291.948 197.942 291.5 197.622 290.94C197.302 290.364 197.142 289.748 197.142 289.092C197.142 288.292 197.35 287.612 197.766 287.052C198.182 286.476 198.774 286.036 199.542 285.732C200.31 285.428 201.23 285.276 202.302 285.276H205.446C205.446 284.572 205.342 283.988 205.134 283.524C204.926 283.06 204.614 282.716 204.198 282.492C203.798 282.252 203.286 282.132 202.662 282.132C201.942 282.132 201.326 282.308 200.814 282.66C200.302 282.996 199.982 283.5 199.854 284.172H197.454C197.55 283.324 197.838 282.604 198.318 282.012C198.814 281.404 199.446 280.94 200.214 280.62C200.982 280.284 201.798 280.116 202.662 280.116C203.798 280.116 204.75 280.316 205.518 280.716C206.286 281.116 206.862 281.684 207.246 282.42C207.646 283.14 207.846 284.004 207.846 285.012V292.5H205.758L205.566 290.46C205.39 290.78 205.182 291.084 204.942 291.372C204.702 291.66 204.414 291.908 204.078 292.116C203.758 292.324 203.382 292.484 202.95 292.596C202.534 292.724 202.07 292.788 201.558 292.788ZM202.014 290.844C202.526 290.844 202.99 290.74 203.406 290.532C203.822 290.324 204.174 290.044 204.462 289.692C204.766 289.324 204.99 288.916 205.134 288.468C205.294 288.004 205.382 287.532 205.398 287.052V286.98H202.542C201.854 286.98 201.294 287.068 200.862 287.244C200.446 287.404 200.142 287.628 199.95 287.916C199.758 288.204 199.662 288.54 199.662 288.924C199.662 289.324 199.75 289.668 199.926 289.956C200.118 290.228 200.39 290.444 200.742 290.604C201.094 290.764 201.518 290.844 202.014 290.844ZM216.501 292.788C215.333 292.788 214.293 292.524 213.381 291.996C212.469 291.452 211.749 290.708 211.221 289.764C210.709 288.82 210.453 287.724 210.453 286.476C210.453 285.212 210.709 284.108 211.221 283.164C211.749 282.204 212.469 281.46 213.381 280.932C214.293 280.388 215.333 280.116 216.501 280.116C217.973 280.116 219.205 280.5 220.197 281.268C221.189 282.036 221.821 283.076 222.093 284.388H219.597C219.437 283.684 219.069 283.14 218.493 282.756C217.933 282.372 217.261 282.18 216.477 282.18C215.837 282.18 215.245 282.348 214.701 282.684C214.157 283.004 213.717 283.484 213.381 284.124C213.061 284.748 212.901 285.524 212.901 286.452C212.901 287.14 212.997 287.756 213.189 288.3C213.381 288.828 213.637 289.276 213.957 289.644C214.293 290.012 214.677 290.292 215.109 290.484C215.541 290.66 215.997 290.748 216.477 290.748C217.005 290.748 217.477 290.668 217.893 290.508C218.325 290.332 218.685 290.076 218.973 289.74C219.277 289.404 219.485 289.004 219.597 288.54H222.093C221.821 289.82 221.189 290.852 220.197 291.636C219.205 292.404 217.973 292.788 216.501 292.788ZM224.902 292.5V275.22H227.302V282.372C227.702 281.668 228.254 281.116 228.958 280.716C229.678 280.316 230.47 280.116 231.334 280.116C232.294 280.116 233.118 280.316 233.806 280.716C234.494 281.1 235.022 281.684 235.39 282.468C235.758 283.236 235.942 284.204 235.942 285.372V292.5H233.566V285.612C233.566 284.492 233.326 283.644 232.846 283.068C232.366 282.476 231.654 282.18 230.71 282.18C230.07 282.18 229.494 282.332 228.982 282.636C228.47 282.94 228.062 283.388 227.758 283.98C227.454 284.556 227.302 285.26 227.302 286.092V292.5H224.902ZM244.483 292.788C243.331 292.788 242.307 292.524 241.411 291.996C240.515 291.468 239.811 290.732 239.299 289.788C238.803 288.844 238.555 287.748 238.555 286.5C238.555 285.22 238.803 284.108 239.299 283.164C239.811 282.204 240.515 281.46 241.411 280.932C242.307 280.388 243.347 280.116 244.531 280.116C245.715 280.116 246.731 280.38 247.579 280.908C248.427 281.436 249.083 282.14 249.547 283.02C250.011 283.884 250.243 284.844 250.243 285.9C250.243 286.06 250.235 286.236 250.219 286.428C250.219 286.604 250.211 286.804 250.195 287.028H240.307V285.324H247.843C247.795 284.316 247.459 283.532 246.835 282.972C246.211 282.396 245.435 282.108 244.507 282.108C243.851 282.108 243.251 282.26 242.707 282.564C242.163 282.852 241.723 283.284 241.387 283.86C241.067 284.42 240.907 285.132 240.907 285.996V286.668C240.907 287.564 241.067 288.324 241.387 288.948C241.723 289.556 242.163 290.02 242.707 290.34C243.251 290.644 243.843 290.796 244.483 290.796C245.251 290.796 245.883 290.628 246.379 290.292C246.875 289.956 247.243 289.5 247.483 288.924H249.883C249.675 289.66 249.323 290.324 248.827 290.916C248.331 291.492 247.715 291.948 246.979 292.284C246.259 292.62 245.427 292.788 244.483 292.788ZM258.285 292.788C257.133 292.788 256.117 292.516 255.237 291.972C254.357 291.412 253.669 290.66 253.173 289.716C252.693 288.756 252.453 287.668 252.453 286.452C252.453 285.22 252.693 284.132 253.173 283.188C253.669 282.244 254.357 281.5 255.237 280.956C256.133 280.396 257.157 280.116 258.309 280.116C259.253 280.116 260.085 280.308 260.805 280.692C261.525 281.06 262.085 281.588 262.485 282.276V275.22H264.885V292.5H262.725L262.485 290.628C262.245 290.996 261.933 291.348 261.549 291.684C261.165 292.004 260.701 292.268 260.157 292.476C259.613 292.684 258.989 292.788 258.285 292.788ZM258.669 290.7C259.421 290.7 260.085 290.524 260.661 290.172C261.237 289.82 261.677 289.324 261.981 288.684C262.301 288.044 262.461 287.3 262.461 286.452C262.461 285.604 262.301 284.868 261.981 284.244C261.677 283.604 261.237 283.108 260.661 282.756C260.085 282.388 259.421 282.204 258.669 282.204C257.949 282.204 257.301 282.388 256.725 282.756C256.149 283.108 255.701 283.604 255.381 284.244C255.061 284.868 254.901 285.604 254.901 286.452C254.901 287.3 255.061 288.044 255.381 288.684C255.701 289.324 256.149 289.82 256.725 290.172C257.301 290.524 257.949 290.7 258.669 290.7ZM85.3744 325.5V319.26L79.8304 308.7H82.5424L86.8864 317.532H86.2864L90.6064 308.7H93.2944L87.7744 319.26V325.5H85.3744ZM98.7614 325.788C97.6254 325.788 96.6014 325.524 95.6894 324.996C94.7934 324.468 94.0814 323.732 93.5534 322.788C93.0414 321.828 92.7854 320.724 92.7854 319.476C92.7854 318.196 93.0494 317.084 93.5774 316.14C94.1054 315.18 94.8254 314.436 95.7374 313.908C96.6494 313.38 97.6734 313.116 98.8094 313.116C99.9614 313.116 100.985 313.38 101.881 313.908C102.777 314.436 103.481 315.172 103.993 316.116C104.521 317.06 104.785 318.172 104.785 319.452C104.785 320.732 104.521 321.844 103.993 322.788C103.481 323.732 102.769 324.468 101.857 324.996C100.945 325.524 99.9134 325.788 98.7614 325.788ZM98.7614 323.724C99.4174 323.724 100.009 323.564 100.537 323.244C101.081 322.924 101.513 322.452 101.833 321.828C102.169 321.188 102.337 320.396 102.337 319.452C102.337 318.508 102.177 317.724 101.857 317.1C101.537 316.46 101.105 315.98 100.561 315.66C100.033 315.34 99.4494 315.18 98.8094 315.18C98.1694 315.18 97.5774 315.34 97.0334 315.66C96.4894 315.98 96.0494 316.46 95.7134 317.1C95.3934 317.724 95.2334 318.508 95.2334 319.452C95.2334 320.396 95.3934 321.188 95.7134 321.828C96.0494 322.452 96.4814 322.924 97.0094 323.244C97.5534 323.564 98.1374 323.724 98.7614 323.724ZM112.049 325.788C111.105 325.788 110.281 325.596 109.577 325.212C108.889 324.828 108.353 324.252 107.969 323.484C107.601 322.716 107.417 321.748 107.417 320.58V313.404H109.817V320.316C109.817 321.452 110.065 322.308 110.561 322.884C111.057 323.46 111.769 323.748 112.697 323.748C113.321 323.748 113.881 323.596 114.377 323.292C114.889 322.988 115.289 322.548 115.577 321.972C115.865 321.396 116.009 320.692 116.009 319.86V313.404H118.409V325.5H116.273L116.105 323.436C115.737 324.172 115.201 324.748 114.497 325.164C113.793 325.58 112.977 325.788 112.049 325.788ZM121.695 325.5V313.404H123.855L124.071 315.684C124.343 315.14 124.695 314.684 125.127 314.316C125.559 313.932 126.063 313.636 126.639 313.428C127.231 313.22 127.903 313.116 128.655 313.116V315.66H127.791C127.295 315.66 126.823 315.724 126.375 315.852C125.927 315.964 125.527 316.164 125.175 316.452C124.839 316.74 124.575 317.132 124.383 317.628C124.191 318.124 124.095 318.74 124.095 319.476V325.5H121.695ZM137.023 325.5V308.7H143.311C144.671 308.7 145.799 308.932 146.695 309.396C147.591 309.86 148.255 310.484 148.687 311.268C149.119 312.052 149.335 312.948 149.335 313.956C149.335 314.884 149.127 315.74 148.711 316.524C148.295 317.308 147.639 317.948 146.743 318.444C145.847 318.924 144.703 319.164 143.311 319.164H140.263V325.5H137.023ZM140.263 316.548H143.119C144.159 316.548 144.903 316.316 145.351 315.852C145.815 315.372 146.047 314.74 146.047 313.956C146.047 313.124 145.815 312.484 145.351 312.036C144.903 311.572 144.159 311.34 143.119 311.34H140.263V316.548ZM151.765 325.5V308.7H158.029C159.389 308.7 160.509 308.932 161.389 309.396C162.269 309.86 162.925 310.484 163.357 311.268C163.789 312.036 164.005 312.892 164.005 313.836C164.005 314.732 163.797 315.572 163.381 316.356C162.965 317.124 162.309 317.748 161.413 318.228C160.533 318.692 159.397 318.924 158.005 318.924H155.005V325.5H151.765ZM160.477 325.5L157.021 318.108H160.525L164.173 325.5H160.477ZM155.005 316.572H157.837C158.813 316.572 159.533 316.332 159.997 315.852C160.461 315.372 160.693 314.74 160.693 313.956C160.693 313.172 160.461 312.556 159.997 312.108C159.549 311.644 158.829 311.412 157.837 311.412H155.005V316.572ZM174.658 325.788C173.026 325.788 171.586 325.42 170.338 324.684C169.09 323.948 168.114 322.932 167.41 321.636C166.706 320.324 166.354 318.812 166.354 317.1C166.354 315.388 166.706 313.884 167.41 312.588C168.114 311.276 169.09 310.252 170.338 309.516C171.586 308.78 173.026 308.412 174.658 308.412C176.306 308.412 177.754 308.78 179.002 309.516C180.25 310.252 181.218 311.276 181.906 312.588C182.61 313.884 182.962 315.388 182.962 317.1C182.962 318.812 182.61 320.324 181.906 321.636C181.218 322.932 180.25 323.948 179.002 324.684C177.754 325.42 176.306 325.788 174.658 325.788ZM174.658 322.884C175.682 322.884 176.562 322.652 177.298 322.188C178.05 321.708 178.634 321.036 179.05 320.172C179.466 319.308 179.674 318.284 179.674 317.1C179.674 315.9 179.466 314.876 179.05 314.028C178.634 313.164 178.05 312.5 177.298 312.036C176.562 311.572 175.682 311.34 174.658 311.34C173.65 311.34 172.77 311.572 172.018 312.036C171.266 312.5 170.682 313.164 170.266 314.028C169.85 314.876 169.642 315.9 169.642 317.1C169.642 318.284 169.85 319.308 170.266 320.172C170.682 321.036 171.266 321.708 172.018 322.188C172.77 322.652 173.65 322.884 174.658 322.884ZM191.963 325.5V308.7H194.363V323.604H202.043V325.5H191.963ZM204.902 325.5V313.404H207.302V325.5H204.902ZM206.126 311.124C205.662 311.124 205.278 310.98 204.974 310.692C204.686 310.404 204.542 310.036 204.542 309.588C204.542 309.156 204.686 308.804 204.974 308.532C205.278 308.244 205.662 308.1 206.126 308.1C206.574 308.1 206.95 308.244 207.254 308.532C207.558 308.804 207.71 309.156 207.71 309.588C207.71 310.036 207.558 310.404 207.254 310.692C206.95 310.98 206.574 311.124 206.126 311.124ZM210.734 325.5V313.404H212.894L213.062 315.108C213.446 314.484 213.958 313.996 214.598 313.644C215.238 313.292 215.958 313.116 216.758 313.116C217.366 313.116 217.918 313.204 218.414 313.38C218.91 313.54 219.35 313.788 219.734 314.124C220.118 314.46 220.43 314.876 220.67 315.372C221.102 314.668 221.678 314.116 222.398 313.716C223.134 313.316 223.91 313.116 224.726 313.116C225.702 313.116 226.542 313.316 227.246 313.716C227.95 314.1 228.486 314.684 228.854 315.468C229.222 316.236 229.406 317.196 229.406 318.348V325.5H227.03V318.588C227.03 317.468 226.798 316.62 226.334 316.044C225.886 315.468 225.222 315.18 224.342 315.18C223.75 315.18 223.222 315.332 222.758 315.636C222.294 315.94 221.926 316.38 221.654 316.956C221.398 317.532 221.27 318.236 221.27 319.068V325.5H218.87V318.588C218.87 317.468 218.638 316.62 218.174 316.044C217.726 315.468 217.062 315.18 216.182 315.18C215.622 315.18 215.11 315.332 214.646 315.636C214.182 315.94 213.814 316.38 213.542 316.956C213.27 317.532 213.134 318.236 213.134 319.068V325.5H210.734ZM232.675 325.5V313.404H235.075V325.5H232.675ZM233.899 311.124C233.435 311.124 233.051 310.98 232.747 310.692C232.459 310.404 232.315 310.036 232.315 309.588C232.315 309.156 232.459 308.804 232.747 308.532C233.051 308.244 233.435 308.1 233.899 308.1C234.347 308.1 234.723 308.244 235.027 308.532C235.331 308.804 235.483 309.156 235.483 309.588C235.483 310.036 235.331 310.404 235.027 310.692C234.723 310.98 234.347 311.124 233.899 311.124ZM243.499 325.5C242.731 325.5 242.067 325.38 241.507 325.14C240.947 324.9 240.515 324.5 240.211 323.94C239.907 323.38 239.755 322.62 239.755 321.66V315.444H237.667V313.404H239.755L240.043 310.38H242.155V313.404H245.587V315.444H242.155V321.684C242.155 322.372 242.299 322.844 242.587 323.1C242.875 323.34 243.371 323.46 244.075 323.46H245.467V325.5H243.499Z" fill="white"/>
<path d="M35.0279 359.5V349.228H31.6679V348.3H39.5079V349.228H36.1479V359.5H35.0279ZM40.1829 359.5V351.436H41.2069L41.2869 352.988C41.4575 352.615 41.6869 352.3 41.9749 352.044C42.2629 351.788 42.6095 351.591 43.0149 351.452C43.4202 351.313 43.8789 351.244 44.3909 351.244V352.412H43.9589C43.6175 352.412 43.2869 352.46 42.9669 352.556C42.6469 352.641 42.3642 352.791 42.1189 353.004C41.8735 353.217 41.6762 353.505 41.5269 353.868C41.3775 354.231 41.3029 354.684 41.3029 355.228V359.5H40.1829ZM46.7961 363.02L48.7801 358.604H48.3481L45.1641 351.436H46.3801L49.1321 357.836L52.0281 351.436H53.1801L47.9641 363.02H46.7961ZM59.0579 359.5V351.436H60.0819L60.1619 352.988C60.3325 352.615 60.5619 352.3 60.8499 352.044C61.1379 351.788 61.4845 351.591 61.8899 351.452C62.2952 351.313 62.7539 351.244 63.2659 351.244V352.412H62.8339C62.4925 352.412 62.1619 352.46 61.8419 352.556C61.5219 352.641 61.2392 352.791 60.9939 353.004C60.7485 353.217 60.5512 353.505 60.4019 353.868C60.2525 354.231 60.1779 354.684 60.1779 355.228V359.5H59.0579ZM67.9514 359.692C67.2047 359.692 66.5434 359.516 65.9674 359.164C65.402 358.812 64.954 358.321 64.6234 357.692C64.3034 357.052 64.1434 356.305 64.1434 355.452C64.1434 354.599 64.3034 353.857 64.6234 353.228C64.9434 352.599 65.3914 352.113 65.9674 351.772C66.554 351.42 67.226 351.244 67.9834 351.244C68.762 351.244 69.418 351.42 69.9514 351.772C70.4954 352.124 70.906 352.583 71.1834 353.148C71.4714 353.713 71.6154 354.332 71.6154 355.004C71.6154 355.111 71.6154 355.223 71.6154 355.34C71.6154 355.447 71.61 355.575 71.5994 355.724H64.9914V354.78H70.5274C70.506 353.959 70.25 353.324 69.7594 352.876C69.2794 352.428 68.6714 352.204 67.9354 352.204C67.4554 352.204 67.0074 352.316 66.5914 352.54C66.186 352.753 65.8554 353.073 65.5994 353.5C65.354 353.916 65.2314 354.444 65.2314 355.084V355.5C65.2314 356.225 65.3594 356.828 65.6154 357.308C65.8714 357.788 66.2074 358.145 66.6234 358.38C67.05 358.615 67.4927 358.732 67.9514 358.732C68.5594 358.732 69.0607 358.599 69.4554 358.332C69.85 358.055 70.1327 357.676 70.3034 357.196H71.4074C71.2687 357.665 71.0447 358.092 70.7354 358.476C70.4367 358.86 70.0527 359.159 69.5834 359.372C69.114 359.585 68.57 359.692 67.9514 359.692ZM73.4485 359.5V351.436H74.4725L74.5525 352.652C74.7978 352.204 75.1392 351.857 75.5765 351.612C76.0138 351.367 76.4992 351.244 77.0325 351.244C77.4272 351.244 77.7952 351.303 78.1365 351.42C78.4778 351.537 78.7765 351.713 79.0325 351.948C79.2992 352.183 79.5072 352.487 79.6565 352.86C79.9232 352.359 80.2965 351.964 80.7765 351.676C81.2672 351.388 81.7898 351.244 82.3445 351.244C82.9632 351.244 83.4965 351.367 83.9445 351.612C84.4032 351.857 84.7605 352.231 85.0165 352.732C85.2725 353.233 85.4005 353.868 85.4005 354.636V359.5H84.2805V354.764C84.2805 353.911 84.1045 353.276 83.7525 352.86C83.4005 352.433 82.9098 352.22 82.2805 352.22C81.8538 352.22 81.4645 352.337 81.1125 352.572C80.7605 352.796 80.4832 353.127 80.2805 353.564C80.0778 353.991 79.9765 354.524 79.9765 355.164V359.5H78.8565V354.764C78.8565 353.911 78.6805 353.276 78.3285 352.86C77.9872 352.433 77.5018 352.22 76.8725 352.22C76.4352 352.22 76.0405 352.337 75.6885 352.572C75.3472 352.796 75.0752 353.132 74.8725 353.58C74.6698 354.017 74.5685 354.561 74.5685 355.212V359.5H73.4485ZM91.063 359.692C90.327 359.692 89.6603 359.521 89.063 359.18C88.4763 358.828 88.0123 358.337 87.671 357.708C87.3297 357.068 87.159 356.327 87.159 355.484C87.159 354.609 87.3297 353.857 87.671 353.228C88.023 352.599 88.4977 352.113 89.095 351.772C89.6923 351.42 90.359 351.244 91.095 351.244C91.863 351.244 92.5403 351.42 93.127 351.772C93.7137 352.113 94.1777 352.599 94.519 353.228C94.8603 353.857 95.031 354.609 95.031 355.484C95.031 356.327 94.855 357.068 94.503 357.708C94.1617 358.337 93.6923 358.828 93.095 359.18C92.5083 359.521 91.831 359.692 91.063 359.692ZM91.079 358.732C91.5803 358.732 92.039 358.609 92.455 358.364C92.8817 358.119 93.223 357.756 93.479 357.276C93.7457 356.785 93.879 356.183 93.879 355.468C93.879 354.743 93.751 354.14 93.495 353.66C93.239 353.18 92.8977 352.823 92.471 352.588C92.055 352.343 91.5963 352.22 91.095 352.22C90.615 352.22 90.1617 352.343 89.735 352.588C89.3083 352.833 88.9617 353.196 88.695 353.676C88.439 354.145 88.311 354.743 88.311 355.468C88.311 356.183 88.439 356.785 88.695 357.276C88.951 357.756 89.287 358.119 89.703 358.364C90.1297 358.609 90.5883 358.732 91.079 358.732ZM98.8946 359.5L95.8226 351.436H96.9906L99.5506 358.412L102.111 351.436H103.263L100.175 359.5H98.8946ZM104.968 359.5V351.436H106.072V359.5H104.968ZM105.528 349.532C105.304 349.532 105.112 349.457 104.952 349.308C104.792 349.148 104.712 348.951 104.712 348.716C104.712 348.471 104.787 348.279 104.936 348.14C105.096 347.991 105.288 347.916 105.512 347.916C105.736 347.916 105.928 347.991 106.088 348.14C106.248 348.279 106.328 348.471 106.328 348.716C106.328 348.951 106.248 349.148 106.088 349.308C105.939 349.457 105.752 349.532 105.528 349.532ZM108.511 359.5V351.436H109.535L109.599 352.876C109.855 352.364 110.223 351.964 110.703 351.676C111.194 351.388 111.738 351.244 112.335 351.244C112.954 351.244 113.492 351.367 113.951 351.612C114.41 351.857 114.767 352.231 115.023 352.732C115.279 353.223 115.407 353.852 115.407 354.62V359.5H114.287V354.748C114.287 353.895 114.1 353.26 113.727 352.844C113.354 352.428 112.82 352.22 112.127 352.22C111.658 352.22 111.231 352.337 110.847 352.572C110.474 352.796 110.175 353.127 109.951 353.564C109.738 354.001 109.631 354.54 109.631 355.18V359.5H108.511ZM120.647 363.212C119.932 363.212 119.297 363.116 118.743 362.924C118.199 362.732 117.767 362.444 117.447 362.06C117.137 361.676 116.983 361.201 116.983 360.636C116.983 360.412 117.02 360.167 117.095 359.9C117.18 359.644 117.34 359.383 117.575 359.116C117.809 358.849 118.14 358.609 118.567 358.396L119.479 358.796C118.913 359.063 118.545 359.351 118.375 359.66C118.204 359.98 118.119 360.268 118.119 360.524C118.119 360.908 118.225 361.228 118.439 361.484C118.663 361.74 118.961 361.932 119.335 362.06C119.719 362.199 120.156 362.268 120.647 362.268C121.137 362.268 121.559 362.193 121.911 362.044C122.273 361.905 122.551 361.703 122.743 361.436C122.935 361.18 123.031 360.881 123.031 360.54C123.031 360.145 122.876 359.809 122.567 359.532C122.268 359.265 121.708 359.111 120.887 359.068C120.236 359.025 119.697 358.972 119.271 358.908C118.855 358.833 118.508 358.748 118.231 358.652C117.964 358.545 117.74 358.433 117.559 358.316C117.388 358.199 117.223 358.071 117.063 357.932V357.564L118.599 356.108L119.623 356.476L118.119 357.82L118.215 357.388C118.332 357.473 118.444 357.553 118.551 357.628C118.668 357.703 118.817 357.767 118.999 357.82C119.191 357.863 119.452 357.911 119.783 357.964C120.124 358.007 120.583 358.049 121.159 358.092C121.895 358.145 122.481 358.273 122.919 358.476C123.356 358.679 123.676 358.951 123.879 359.292C124.081 359.633 124.183 360.033 124.183 360.492C124.183 360.951 124.055 361.388 123.799 361.804C123.553 362.22 123.169 362.556 122.647 362.812C122.135 363.079 121.468 363.212 120.647 363.212ZM120.631 356.94C119.948 356.94 119.372 356.812 118.903 356.556C118.444 356.3 118.092 355.959 117.847 355.532C117.601 355.095 117.479 354.615 117.479 354.092C117.479 353.559 117.601 353.079 117.847 352.652C118.092 352.225 118.449 351.884 118.919 351.628C119.388 351.372 119.959 351.244 120.631 351.244C121.313 351.244 121.884 351.372 122.343 351.628C122.812 351.884 123.164 352.225 123.399 352.652C123.644 353.079 123.767 353.559 123.767 354.092C123.767 354.615 123.644 355.095 123.399 355.532C123.164 355.959 122.812 356.3 122.343 356.556C121.884 356.812 121.313 356.94 120.631 356.94ZM120.631 355.98C121.249 355.98 121.735 355.82 122.087 355.5C122.449 355.169 122.631 354.7 122.631 354.092C122.631 353.473 122.449 353.004 122.087 352.684C121.735 352.364 121.249 352.204 120.631 352.204C120.012 352.204 119.516 352.364 119.143 352.684C118.78 353.004 118.599 353.473 118.599 354.092C118.599 354.7 118.78 355.169 119.143 355.5C119.505 355.82 120.001 355.98 120.631 355.98ZM121.943 352.444L121.543 351.436H124.807V352.348L121.943 352.444ZM133.337 359.692C132.686 359.692 132.142 359.575 131.705 359.34C131.278 359.105 130.958 358.801 130.745 358.428C130.542 358.055 130.441 357.644 130.441 357.196C130.441 356.641 130.58 356.172 130.857 355.788C131.145 355.404 131.545 355.116 132.057 354.924C132.569 354.732 133.166 354.636 133.849 354.636H136.025C136.025 354.113 135.945 353.671 135.785 353.308C135.625 352.945 135.39 352.673 135.081 352.492C134.772 352.3 134.382 352.204 133.913 352.204C133.369 352.204 132.9 352.343 132.505 352.62C132.11 352.897 131.865 353.303 131.769 353.836H130.601C130.665 353.271 130.857 352.796 131.177 352.412C131.508 352.028 131.913 351.74 132.393 351.548C132.873 351.345 133.38 351.244 133.913 351.244C134.66 351.244 135.268 351.388 135.737 351.676C136.206 351.953 136.558 352.337 136.793 352.828C137.028 353.319 137.145 353.884 137.145 354.524V359.5H136.121L136.057 358.028C135.961 358.252 135.828 358.465 135.657 358.668C135.497 358.871 135.305 359.047 135.081 359.196C134.868 359.345 134.617 359.463 134.329 359.548C134.041 359.644 133.71 359.692 133.337 359.692ZM133.465 358.716C133.86 358.716 134.212 358.636 134.521 358.476C134.841 358.305 135.113 358.087 135.337 357.82C135.561 357.553 135.732 357.255 135.849 356.924C135.966 356.583 136.025 356.231 136.025 355.868V355.58H133.929C133.364 355.58 132.91 355.649 132.569 355.788C132.228 355.927 131.982 356.113 131.833 356.348C131.684 356.583 131.609 356.855 131.609 357.164C131.609 357.473 131.678 357.745 131.817 357.98C131.956 358.204 132.164 358.385 132.441 358.524C132.729 358.652 133.07 358.716 133.465 358.716ZM144.147 359.5V350.044C144.147 349.575 144.222 349.191 144.371 348.892C144.531 348.583 144.766 348.353 145.075 348.204C145.385 348.055 145.774 347.98 146.243 347.98H147.155V348.94H146.435C146.009 348.94 145.705 349.025 145.523 349.196C145.353 349.367 145.267 349.665 145.267 350.092V359.5H144.147ZM142.899 352.396V351.436H147.363V352.396H142.899ZM152.139 359.692C151.392 359.692 150.731 359.516 150.155 359.164C149.59 358.812 149.142 358.321 148.811 357.692C148.491 357.052 148.331 356.305 148.331 355.452C148.331 354.599 148.491 353.857 148.811 353.228C149.131 352.599 149.579 352.113 150.155 351.772C150.742 351.42 151.414 351.244 152.171 351.244C152.95 351.244 153.606 351.42 154.139 351.772C154.683 352.124 155.094 352.583 155.371 353.148C155.659 353.713 155.803 354.332 155.803 355.004C155.803 355.111 155.803 355.223 155.803 355.34C155.803 355.447 155.798 355.575 155.787 355.724H149.179V354.78H154.715C154.694 353.959 154.438 353.324 153.947 352.876C153.467 352.428 152.859 352.204 152.123 352.204C151.643 352.204 151.195 352.316 150.779 352.54C150.374 352.753 150.043 353.073 149.787 353.5C149.542 353.916 149.419 354.444 149.419 355.084V355.5C149.419 356.225 149.547 356.828 149.803 357.308C150.059 357.788 150.395 358.145 150.811 358.38C151.238 358.615 151.68 358.732 152.139 358.732C152.747 358.732 153.248 358.599 153.643 358.332C154.038 358.055 154.32 357.676 154.491 357.196H155.595C155.456 357.665 155.232 358.092 154.923 358.476C154.624 358.86 154.24 359.159 153.771 359.372C153.302 359.585 152.758 359.692 152.139 359.692ZM158.988 359.5L156.62 351.436H157.756L159.676 358.332H159.452L161.532 351.436H162.812L164.892 358.332H164.668L166.588 351.436H167.724L165.356 359.5H164.22L162.06 352.284H162.284L160.124 359.5H158.988ZM176.275 359.692C175.624 359.692 175.08 359.575 174.643 359.34C174.216 359.105 173.896 358.801 173.683 358.428C173.48 358.055 173.379 357.644 173.379 357.196C173.379 356.641 173.517 356.172 173.795 355.788C174.083 355.404 174.483 355.116 174.995 354.924C175.507 354.732 176.104 354.636 176.786 354.636H178.963C178.963 354.113 178.883 353.671 178.723 353.308C178.563 352.945 178.328 352.673 178.019 352.492C177.709 352.3 177.32 352.204 176.851 352.204C176.307 352.204 175.837 352.343 175.443 352.62C175.048 352.897 174.803 353.303 174.707 353.836H173.539C173.603 353.271 173.795 352.796 174.115 352.412C174.445 352.028 174.851 351.74 175.331 351.548C175.811 351.345 176.317 351.244 176.851 351.244C177.597 351.244 178.205 351.388 178.675 351.676C179.144 351.953 179.496 352.337 179.731 352.828C179.965 353.319 180.083 353.884 180.083 354.524V359.5H179.059L178.995 358.028C178.899 358.252 178.765 358.465 178.595 358.668C178.435 358.871 178.243 359.047 178.019 359.196C177.805 359.345 177.555 359.463 177.266 359.548C176.979 359.644 176.648 359.692 176.275 359.692ZM176.403 358.716C176.797 358.716 177.149 358.636 177.459 358.476C177.779 358.305 178.051 358.087 178.275 357.82C178.499 357.553 178.669 357.255 178.787 356.924C178.904 356.583 178.963 356.231 178.963 355.868V355.58H176.867C176.301 355.58 175.848 355.649 175.507 355.788C175.165 355.927 174.92 356.113 174.771 356.348C174.621 356.583 174.547 356.855 174.547 357.164C174.547 357.473 174.616 357.745 174.755 357.98C174.893 358.204 175.101 358.385 175.379 358.524C175.667 358.652 176.008 358.716 176.403 358.716ZM185.159 359.692C184.519 359.692 183.953 359.585 183.463 359.372C182.983 359.159 182.593 358.855 182.295 358.46C182.007 358.055 181.831 357.575 181.767 357.02H182.919C182.983 357.329 183.105 357.612 183.287 357.868C183.479 358.124 183.735 358.332 184.055 358.492C184.375 358.641 184.753 358.716 185.191 358.716C185.596 358.716 185.927 358.657 186.183 358.54C186.449 358.412 186.647 358.247 186.775 358.044C186.913 357.831 186.983 357.596 186.983 357.34C186.983 356.988 186.897 356.716 186.727 356.524C186.567 356.321 186.332 356.172 186.023 356.076C185.713 355.98 185.34 355.889 184.903 355.804C184.54 355.74 184.193 355.655 183.863 355.548C183.532 355.441 183.233 355.303 182.967 355.132C182.711 354.961 182.508 354.748 182.359 354.492C182.209 354.225 182.135 353.916 182.135 353.564C182.135 353.105 182.247 352.705 182.471 352.364C182.705 352.012 183.036 351.74 183.463 351.548C183.889 351.345 184.391 351.244 184.967 351.244C185.788 351.244 186.46 351.452 186.983 351.868C187.505 352.273 187.809 352.871 187.895 353.66H186.775C186.732 353.223 186.551 352.876 186.231 352.62C185.911 352.364 185.479 352.236 184.935 352.236C184.401 352.236 183.991 352.348 183.703 352.572C183.425 352.785 183.287 353.079 183.287 353.452C183.287 353.687 183.361 353.889 183.511 354.06C183.66 354.231 183.879 354.38 184.167 354.508C184.465 354.625 184.828 354.727 185.255 354.812C185.767 354.908 186.236 355.036 186.663 355.196C187.1 355.345 187.452 355.58 187.719 355.9C187.996 356.209 188.135 356.652 188.135 357.228C188.145 357.708 188.028 358.135 187.783 358.508C187.537 358.881 187.191 359.175 186.743 359.388C186.295 359.591 185.767 359.692 185.159 359.692ZM193.08 359.692C192.44 359.692 191.875 359.585 191.384 359.372C190.904 359.159 190.515 358.855 190.216 358.46C189.928 358.055 189.752 357.575 189.688 357.02H190.84C190.904 357.329 191.027 357.612 191.208 357.868C191.4 358.124 191.656 358.332 191.976 358.492C192.296 358.641 192.675 358.716 193.112 358.716C193.518 358.716 193.848 358.657 194.104 358.54C194.371 358.412 194.568 358.247 194.696 358.044C194.835 357.831 194.904 357.596 194.904 357.34C194.904 356.988 194.819 356.716 194.648 356.524C194.488 356.321 194.254 356.172 193.944 356.076C193.635 355.98 193.262 355.889 192.824 355.804C192.462 355.74 192.115 355.655 191.784 355.548C191.454 355.441 191.155 355.303 190.888 355.132C190.632 354.961 190.43 354.748 190.28 354.492C190.131 354.225 190.056 353.916 190.056 353.564C190.056 353.105 190.168 352.705 190.392 352.364C190.627 352.012 190.958 351.74 191.384 351.548C191.811 351.345 192.312 351.244 192.888 351.244C193.71 351.244 194.382 351.452 194.904 351.868C195.427 352.273 195.731 352.871 195.816 353.66H194.696C194.654 353.223 194.472 352.876 194.152 352.62C193.832 352.364 193.4 352.236 192.856 352.236C192.323 352.236 191.912 352.348 191.624 352.572C191.347 352.785 191.208 353.079 191.208 353.452C191.208 353.687 191.283 353.889 191.432 354.06C191.582 354.231 191.8 354.38 192.088 354.508C192.387 354.625 192.75 354.727 193.176 354.812C193.688 354.908 194.158 355.036 194.584 355.196C195.022 355.345 195.374 355.58 195.64 355.9C195.918 356.209 196.056 356.652 196.056 357.228C196.067 357.708 195.95 358.135 195.704 358.508C195.459 358.881 195.112 359.175 194.664 359.388C194.216 359.591 193.688 359.692 193.08 359.692ZM201.498 359.692C200.752 359.692 200.09 359.516 199.514 359.164C198.949 358.812 198.501 358.321 198.17 357.692C197.85 357.052 197.69 356.305 197.69 355.452C197.69 354.599 197.85 353.857 198.17 353.228C198.49 352.599 198.938 352.113 199.514 351.772C200.101 351.42 200.773 351.244 201.53 351.244C202.309 351.244 202.965 351.42 203.498 351.772C204.042 352.124 204.453 352.583 204.73 353.148C205.018 353.713 205.162 354.332 205.162 355.004C205.162 355.111 205.162 355.223 205.162 355.34C205.162 355.447 205.157 355.575 205.146 355.724H198.538V354.78H204.074C204.053 353.959 203.797 353.324 203.306 352.876C202.826 352.428 202.218 352.204 201.482 352.204C201.002 352.204 200.554 352.316 200.138 352.54C199.733 352.753 199.402 353.073 199.146 353.5C198.901 353.916 198.778 354.444 198.778 355.084V355.5C198.778 356.225 198.906 356.828 199.162 357.308C199.418 357.788 199.754 358.145 200.17 358.38C200.597 358.615 201.04 358.732 201.498 358.732C202.106 358.732 202.608 358.599 203.002 358.332C203.397 358.055 203.68 357.676 203.85 357.196H204.954C204.816 357.665 204.592 358.092 204.282 358.476C203.984 358.86 203.6 359.159 203.13 359.372C202.661 359.585 202.117 359.692 201.498 359.692ZM209.739 359.5C209.28 359.5 208.886 359.431 208.555 359.292C208.224 359.143 207.968 358.903 207.787 358.572C207.616 358.231 207.531 357.767 207.531 357.18V352.396H206.123V351.436H207.531L207.691 349.564H208.651V351.452H211.067V352.396H208.651V357.18C208.651 357.713 208.758 358.076 208.971 358.268C209.184 358.449 209.563 358.54 210.107 358.54H210.939V359.5H209.739ZM215.768 359.692C215.128 359.692 214.563 359.585 214.072 359.372C213.592 359.159 213.203 358.855 212.904 358.46C212.616 358.055 212.44 357.575 212.376 357.02H213.528C213.592 357.329 213.715 357.612 213.896 357.868C214.088 358.124 214.344 358.332 214.664 358.492C214.984 358.641 215.363 358.716 215.8 358.716C216.205 358.716 216.536 358.657 216.792 358.54C217.059 358.412 217.256 358.247 217.384 358.044C217.523 357.831 217.592 357.596 217.592 357.34C217.592 356.988 217.507 356.716 217.336 356.524C217.176 356.321 216.941 356.172 216.632 356.076C216.323 355.98 215.949 355.889 215.512 355.804C215.149 355.74 214.803 355.655 214.472 355.548C214.141 355.441 213.843 355.303 213.576 355.132C213.32 354.961 213.117 354.748 212.968 354.492C212.819 354.225 212.744 353.916 212.744 353.564C212.744 353.105 212.856 352.705 213.08 352.364C213.315 352.012 213.645 351.74 214.072 351.548C214.499 351.345 215 351.244 215.576 351.244C216.397 351.244 217.069 351.452 217.592 351.868C218.115 352.273 218.419 352.871 218.504 353.66H217.384C217.341 353.223 217.16 352.876 216.84 352.62C216.52 352.364 216.088 352.236 215.544 352.236C215.011 352.236 214.6 352.348 214.312 352.572C214.035 352.785 213.896 353.079 213.896 353.452C213.896 353.687 213.971 353.889 214.12 354.06C214.269 354.231 214.488 354.38 214.776 354.508C215.075 354.625 215.437 354.727 215.864 354.812C216.376 354.908 216.845 355.036 217.272 355.196C217.709 355.345 218.061 355.58 218.328 355.9C218.605 356.209 218.744 356.652 218.744 357.228C218.755 357.708 218.637 358.135 218.392 358.508C218.147 358.881 217.8 359.175 217.352 359.388C216.904 359.591 216.376 359.692 215.768 359.692ZM225.616 359.5V350.044C225.616 349.575 225.691 349.191 225.84 348.892C226 348.583 226.235 348.353 226.544 348.204C226.853 348.055 227.243 347.98 227.712 347.98H228.624V348.94H227.904C227.477 348.94 227.173 349.025 226.992 349.196C226.821 349.367 226.736 349.665 226.736 350.092V359.5H225.616ZM224.368 352.396V351.436H228.832V352.396H224.368ZM230.464 359.5V351.436H231.488L231.568 352.988C231.739 352.615 231.968 352.3 232.256 352.044C232.544 351.788 232.891 351.591 233.296 351.452C233.701 351.313 234.16 351.244 234.672 351.244V352.412H234.24C233.899 352.412 233.568 352.46 233.248 352.556C232.928 352.641 232.645 352.791 232.4 353.004C232.155 353.217 231.957 353.505 231.808 353.868C231.659 354.231 231.584 354.684 231.584 355.228V359.5H230.464ZM239.454 359.692C238.718 359.692 238.051 359.521 237.454 359.18C236.867 358.828 236.403 358.337 236.062 357.708C235.72 357.068 235.55 356.327 235.55 355.484C235.55 354.609 235.72 353.857 236.062 353.228C236.414 352.599 236.888 352.113 237.486 351.772C238.083 351.42 238.75 351.244 239.486 351.244C240.254 351.244 240.931 351.42 241.518 351.772C242.104 352.113 242.568 352.599 242.91 353.228C243.251 353.857 243.422 354.609 243.422 355.484C243.422 356.327 243.246 357.068 242.894 357.708C242.552 358.337 242.083 358.828 241.486 359.18C240.899 359.521 240.222 359.692 239.454 359.692ZM239.47 358.732C239.971 358.732 240.43 358.609 240.846 358.364C241.272 358.119 241.614 357.756 241.87 357.276C242.136 356.785 242.27 356.183 242.27 355.468C242.27 354.743 242.142 354.14 241.886 353.66C241.63 353.18 241.288 352.823 240.862 352.588C240.446 352.343 239.987 352.22 239.486 352.22C239.006 352.22 238.552 352.343 238.126 352.588C237.699 352.833 237.352 353.196 237.086 353.676C236.83 354.145 236.702 354.743 236.702 355.468C236.702 356.183 236.83 356.785 237.086 357.276C237.342 357.756 237.678 358.119 238.094 358.364C238.52 358.609 238.979 358.732 239.47 358.732ZM245.339 359.5V351.436H246.363L246.443 352.652C246.688 352.204 247.03 351.857 247.467 351.612C247.904 351.367 248.39 351.244 248.923 351.244C249.318 351.244 249.686 351.303 250.027 351.42C250.368 351.537 250.667 351.713 250.923 351.948C251.19 352.183 251.398 352.487 251.547 352.86C251.814 352.359 252.187 351.964 252.667 351.676C253.158 351.388 253.68 351.244 254.235 351.244C254.854 351.244 255.387 351.367 255.835 351.612C256.294 351.857 256.651 352.231 256.907 352.732C257.163 353.233 257.291 353.868 257.291 354.636V359.5H256.171V354.764C256.171 353.911 255.995 353.276 255.643 352.86C255.291 352.433 254.8 352.22 254.171 352.22C253.744 352.22 253.355 352.337 253.003 352.572C252.651 352.796 252.374 353.127 252.171 353.564C251.968 353.991 251.867 354.524 251.867 355.164V359.5H250.747V354.764C250.747 353.911 250.571 353.276 250.219 352.86C249.878 352.433 249.392 352.22 248.763 352.22C248.326 352.22 247.931 352.337 247.579 352.572C247.238 352.796 246.966 353.132 246.763 353.58C246.56 354.017 246.459 354.561 246.459 355.212V359.5H245.339ZM264.64 363.02L266.624 358.604H266.192L263.008 351.436H264.224L266.976 357.836L269.872 351.436H271.024L265.808 363.02H264.64ZM275.282 359.692C274.546 359.692 273.879 359.521 273.282 359.18C272.695 358.828 272.231 358.337 271.89 357.708C271.548 357.068 271.378 356.327 271.378 355.484C271.378 354.609 271.548 353.857 271.89 353.228C272.242 352.599 272.716 352.113 273.314 351.772C273.911 351.42 274.578 351.244 275.314 351.244C276.082 351.244 276.759 351.42 277.346 351.772C277.932 352.113 278.396 352.599 278.738 353.228C279.079 353.857 279.25 354.609 279.25 355.484C279.25 356.327 279.074 357.068 278.722 357.708C278.38 358.337 277.911 358.828 277.314 359.18C276.727 359.521 276.05 359.692 275.282 359.692ZM275.298 358.732C275.799 358.732 276.258 358.609 276.674 358.364C277.1 358.119 277.442 357.756 277.698 357.276C277.964 356.785 278.098 356.183 278.098 355.468C278.098 354.743 277.97 354.14 277.714 353.66C277.458 353.18 277.116 352.823 276.69 352.588C276.274 352.343 275.815 352.22 275.314 352.22C274.834 352.22 274.38 352.343 273.954 352.588C273.527 352.833 273.18 353.196 272.914 353.676C272.658 354.145 272.53 354.743 272.53 355.468C272.53 356.183 272.658 356.785 272.914 357.276C273.17 357.756 273.506 358.119 273.922 358.364C274.348 358.609 274.807 358.732 275.298 358.732ZM284.079 359.692C283.471 359.692 282.933 359.575 282.463 359.34C282.005 359.095 281.647 358.727 281.391 358.236C281.135 357.735 281.007 357.095 281.007 356.316V351.436H282.127V356.188C282.127 357.041 282.314 357.676 282.687 358.092C283.071 358.508 283.599 358.716 284.271 358.716C284.751 358.716 285.178 358.604 285.551 358.38C285.935 358.156 286.234 357.825 286.447 357.388C286.671 356.94 286.783 356.396 286.783 355.756V351.436H287.903V359.5H286.879L286.815 358.06C286.559 358.583 286.186 358.988 285.695 359.276C285.215 359.553 284.677 359.692 284.079 359.692ZM290.183 359.5V351.436H291.207L291.287 352.988C291.458 352.615 291.687 352.3 291.975 352.044C292.263 351.788 292.61 351.591 293.015 351.452C293.42 351.313 293.879 351.244 294.391 351.244V352.412H293.959C293.618 352.412 293.287 352.46 292.967 352.556C292.647 352.641 292.364 352.791 292.119 353.004C291.874 353.217 291.676 353.505 291.527 353.868C291.378 354.231 291.303 354.684 291.303 355.228V359.5H290.183ZM60.9163 384.692C60.2763 384.692 59.711 384.585 59.2203 384.372C58.7403 384.159 58.351 383.855 58.0523 383.46C57.7643 383.055 57.5883 382.575 57.5243 382.02H58.6763C58.7403 382.329 58.863 382.612 59.0443 382.868C59.2363 383.124 59.4923 383.332 59.8123 383.492C60.1323 383.641 60.511 383.716 60.9483 383.716C61.3536 383.716 61.6843 383.657 61.9403 383.54C62.207 383.412 62.4043 383.247 62.5323 383.044C62.671 382.831 62.7403 382.596 62.7403 382.34C62.7403 381.988 62.655 381.716 62.4843 381.524C62.3243 381.321 62.0896 381.172 61.7803 381.076C61.471 380.98 61.0976 380.889 60.6603 380.804C60.2976 380.74 59.951 380.655 59.6203 380.548C59.2896 380.441 58.991 380.303 58.7243 380.132C58.4683 379.961 58.2656 379.748 58.1163 379.492C57.967 379.225 57.8923 378.916 57.8923 378.564C57.8923 378.105 58.0043 377.705 58.2283 377.364C58.463 377.012 58.7936 376.74 59.2203 376.548C59.647 376.345 60.1483 376.244 60.7243 376.244C61.5456 376.244 62.2176 376.452 62.7403 376.868C63.263 377.273 63.567 377.871 63.6523 378.66H62.5323C62.4896 378.223 62.3083 377.876 61.9883 377.62C61.6683 377.364 61.2363 377.236 60.6923 377.236C60.159 377.236 59.7483 377.348 59.4603 377.572C59.183 377.785 59.0443 378.079 59.0443 378.452C59.0443 378.687 59.119 378.889 59.2683 379.06C59.4176 379.231 59.6363 379.38 59.9243 379.508C60.223 379.625 60.5856 379.727 61.0123 379.812C61.5243 379.908 61.9936 380.036 62.4203 380.196C62.8576 380.345 63.2096 380.58 63.4763 380.9C63.7536 381.209 63.8923 381.652 63.8923 382.228C63.903 382.708 63.7856 383.135 63.5403 383.508C63.295 383.881 62.9483 384.175 62.5003 384.388C62.0523 384.591 61.5243 384.692 60.9163 384.692ZM69.4302 384.692C68.6835 384.692 68.0169 384.516 67.4302 384.164C66.8435 383.812 66.3795 383.321 66.0382 382.692C65.6969 382.052 65.5262 381.316 65.5262 380.484C65.5262 379.62 65.6969 378.879 66.0382 378.26C66.3795 377.631 66.8435 377.14 67.4302 376.788C68.0275 376.425 68.6942 376.244 69.4302 376.244C70.3689 376.244 71.1475 376.489 71.7662 376.98C72.3955 377.46 72.7955 378.1 72.9662 378.9H71.8462C71.7289 378.367 71.4462 377.956 70.9982 377.668C70.5609 377.369 70.0329 377.22 69.4142 377.22C68.9342 377.22 68.4862 377.343 68.0702 377.588C67.6542 377.823 67.3182 378.18 67.0622 378.66C66.8062 379.14 66.6782 379.748 66.6782 380.484C66.6782 381.028 66.7529 381.503 66.9022 381.908C67.0515 382.313 67.2542 382.655 67.5102 382.932C67.7662 383.199 68.0595 383.401 68.3902 383.54C68.7209 383.679 69.0622 383.748 69.4142 383.748C69.8195 383.748 70.1875 383.684 70.5182 383.556C70.8595 383.417 71.1475 383.22 71.3822 382.964C71.6169 382.708 71.7715 382.399 71.8462 382.036H72.9662C72.8062 382.815 72.4115 383.455 71.7822 383.956C71.1529 384.447 70.3689 384.692 69.4302 384.692ZM74.8938 384.5V376.436H75.9178L75.9978 377.988C76.1685 377.615 76.3978 377.3 76.6858 377.044C76.9738 376.788 77.3205 376.591 77.7258 376.452C78.1311 376.313 78.5898 376.244 79.1018 376.244V377.412H78.6698C78.3285 377.412 77.9978 377.46 77.6778 377.556C77.3578 377.641 77.0751 377.791 76.8298 378.004C76.5845 378.217 76.3871 378.505 76.2378 378.868C76.0885 379.231 76.0138 379.684 76.0138 380.228V384.5H74.8938ZM80.8351 384.5V376.436H81.9391V384.5H80.8351ZM81.3951 374.532C81.1711 374.532 80.9791 374.457 80.8191 374.308C80.6591 374.148 80.5791 373.951 80.5791 373.716C80.5791 373.471 80.6537 373.279 80.8031 373.14C80.9631 372.991 81.1551 372.916 81.3791 372.916C81.6031 372.916 81.7951 372.991 81.9551 373.14C82.1151 373.279 82.1951 373.471 82.1951 373.716C82.1951 373.951 82.1151 374.148 81.9551 374.308C81.8057 374.457 81.6191 374.532 81.3951 374.532ZM84.3782 388.02V376.436H85.4022L85.4982 377.892C85.6689 377.604 85.8929 377.337 86.1702 377.092C86.4475 376.836 86.7782 376.633 87.1622 376.484C87.5569 376.324 88.0049 376.244 88.5062 376.244C89.2849 376.244 89.9622 376.431 90.5382 376.804C91.1249 377.177 91.5782 377.684 91.8982 378.324C92.2182 378.953 92.3782 379.673 92.3782 380.484C92.3782 381.295 92.2129 382.02 91.8822 382.66C91.5622 383.289 91.1142 383.785 90.5382 384.148C89.9622 384.511 89.2795 384.692 88.4902 384.692C87.8075 384.692 87.2049 384.548 86.6822 384.26C86.1702 383.961 85.7755 383.545 85.4982 383.012V388.02H84.3782ZM88.4102 383.716C88.9649 383.716 89.4502 383.583 89.8662 383.316C90.2929 383.049 90.6289 382.676 90.8742 382.196C91.1195 381.705 91.2422 381.129 91.2422 380.468C91.2422 379.817 91.1195 379.247 90.8742 378.756C90.6289 378.265 90.2929 377.887 89.8662 377.62C89.4502 377.353 88.9649 377.22 88.4102 377.22C87.8555 377.22 87.3595 377.353 86.9222 377.62C86.4955 377.887 86.1595 378.265 85.9142 378.756C85.6795 379.236 85.5622 379.807 85.5622 380.468C85.5622 381.119 85.6795 381.689 85.9142 382.18C86.1595 382.671 86.4955 383.049 86.9222 383.316C87.3595 383.583 87.8555 383.716 88.4102 383.716ZM97.0436 384.5C96.5849 384.5 96.1902 384.431 95.8596 384.292C95.5289 384.143 95.2729 383.903 95.0916 383.572C94.9209 383.231 94.8356 382.767 94.8356 382.18V377.396H93.4276V376.436H94.8356L94.9956 374.564H95.9556V376.452H98.3716V377.396H95.9556V382.18C95.9556 382.713 96.0622 383.076 96.2756 383.268C96.4889 383.449 96.8676 383.54 97.4116 383.54H98.2436V384.5H97.0436ZM107.575 384.5C107.116 384.5 106.721 384.431 106.391 384.292C106.06 384.143 105.804 383.903 105.623 383.572C105.452 383.231 105.367 382.767 105.367 382.18V377.396H103.959V376.436H105.367L105.527 374.564H106.487V376.452H108.903V377.396H106.487V382.18C106.487 382.713 106.593 383.076 106.807 383.268C107.02 383.449 107.399 383.54 107.943 383.54H108.775V384.5H107.575ZM113.977 384.692C113.241 384.692 112.574 384.521 111.977 384.18C111.39 383.828 110.926 383.337 110.585 382.708C110.244 382.068 110.073 381.327 110.073 380.484C110.073 379.609 110.244 378.857 110.585 378.228C110.937 377.599 111.412 377.113 112.009 376.772C112.606 376.42 113.273 376.244 114.009 376.244C114.777 376.244 115.454 376.42 116.041 376.772C116.628 377.113 117.092 377.599 117.433 378.228C117.774 378.857 117.945 379.609 117.945 380.484C117.945 381.327 117.769 382.068 117.417 382.708C117.076 383.337 116.606 383.828 116.009 384.18C115.422 384.521 114.745 384.692 113.977 384.692ZM113.993 383.732C114.494 383.732 114.953 383.609 115.369 383.364C115.796 383.119 116.137 382.756 116.393 382.276C116.66 381.785 116.793 381.183 116.793 380.468C116.793 379.743 116.665 379.14 116.409 378.66C116.153 378.18 115.812 377.823 115.385 377.588C114.969 377.343 114.51 377.22 114.009 377.22C113.529 377.22 113.076 377.343 112.649 377.588C112.222 377.833 111.876 378.196 111.609 378.676C111.353 379.145 111.225 379.743 111.225 380.468C111.225 381.183 111.353 381.785 111.609 382.276C111.865 382.756 112.201 383.119 112.617 383.364C113.044 383.609 113.502 383.732 113.993 383.732ZM124.749 384.5V375.044C124.749 374.575 124.823 374.191 124.973 373.892C125.133 373.583 125.367 373.353 125.677 373.204C125.986 373.055 126.375 372.98 126.845 372.98H127.757V373.94H127.037C126.61 373.94 126.306 374.025 126.125 374.196C125.954 374.367 125.869 374.665 125.869 375.092V384.5H124.749ZM123.501 377.396V376.436H127.965V377.396H123.501ZM129.597 384.5V376.436H130.621L130.701 377.988C130.872 377.615 131.101 377.3 131.389 377.044C131.677 376.788 132.024 376.591 132.429 376.452C132.834 376.313 133.293 376.244 133.805 376.244V377.412H133.373C133.032 377.412 132.701 377.46 132.381 377.556C132.061 377.641 131.778 377.791 131.533 378.004C131.288 378.217 131.09 378.505 130.941 378.868C130.792 379.231 130.717 379.684 130.717 380.228V384.5H129.597ZM138.49 384.692C137.744 384.692 137.082 384.516 136.506 384.164C135.941 383.812 135.493 383.321 135.162 382.692C134.842 382.052 134.682 381.305 134.682 380.452C134.682 379.599 134.842 378.857 135.162 378.228C135.482 377.599 135.93 377.113 136.506 376.772C137.093 376.42 137.765 376.244 138.522 376.244C139.301 376.244 139.957 376.42 140.49 376.772C141.034 377.124 141.445 377.583 141.722 378.148C142.01 378.713 142.154 379.332 142.154 380.004C142.154 380.111 142.154 380.223 142.154 380.34C142.154 380.447 142.149 380.575 142.138 380.724H135.53V379.78H141.066C141.045 378.959 140.789 378.324 140.298 377.876C139.818 377.428 139.21 377.204 138.474 377.204C137.994 377.204 137.546 377.316 137.13 377.54C136.725 377.753 136.394 378.073 136.138 378.5C135.893 378.916 135.77 379.444 135.77 380.084V380.5C135.77 381.225 135.898 381.828 136.154 382.308C136.41 382.788 136.746 383.145 137.162 383.38C137.589 383.615 138.032 383.732 138.49 383.732C139.098 383.732 139.6 383.599 139.994 383.332C140.389 383.055 140.672 382.676 140.842 382.196H141.946C141.808 382.665 141.584 383.092 141.274 383.476C140.976 383.86 140.592 384.159 140.122 384.372C139.653 384.585 139.109 384.692 138.49 384.692ZM147.444 384.692C146.697 384.692 146.036 384.516 145.46 384.164C144.894 383.812 144.446 383.321 144.116 382.692C143.796 382.052 143.636 381.305 143.636 380.452C143.636 379.599 143.796 378.857 144.116 378.228C144.436 377.599 144.884 377.113 145.46 376.772C146.046 376.42 146.718 376.244 147.476 376.244C148.254 376.244 148.91 376.42 149.444 376.772C149.988 377.124 150.398 377.583 150.676 378.148C150.964 378.713 151.108 379.332 151.108 380.004C151.108 380.111 151.108 380.223 151.108 380.34C151.108 380.447 151.102 380.575 151.092 380.724H144.484V379.78H150.02C149.998 378.959 149.742 378.324 149.252 377.876C148.772 377.428 148.164 377.204 147.428 377.204C146.948 377.204 146.5 377.316 146.084 377.54C145.678 377.753 145.348 378.073 145.092 378.5C144.846 378.916 144.724 379.444 144.724 380.084V380.5C144.724 381.225 144.852 381.828 145.108 382.308C145.364 382.788 145.7 383.145 146.116 383.38C146.542 383.615 146.985 383.732 147.444 383.732C148.052 383.732 148.553 383.599 148.948 383.332C149.342 383.055 149.625 382.676 149.796 382.196H150.9C150.761 382.665 150.537 383.092 150.228 383.476C149.929 383.86 149.545 384.159 149.076 384.372C148.606 384.585 148.062 384.692 147.444 384.692ZM160.259 384.692C159.651 384.692 159.112 384.575 158.643 384.34C158.184 384.095 157.827 383.727 157.571 383.236C157.315 382.735 157.187 382.095 157.187 381.316V376.436H158.307V381.188C158.307 382.041 158.494 382.676 158.867 383.092C159.251 383.508 159.779 383.716 160.451 383.716C160.931 383.716 161.358 383.604 161.731 383.38C162.115 383.156 162.414 382.825 162.627 382.388C162.851 381.94 162.963 381.396 162.963 380.756V376.436H164.083V384.5H163.059L162.995 383.06C162.739 383.583 162.366 383.988 161.875 384.276C161.395 384.553 160.856 384.692 160.259 384.692ZM166.363 388.02V376.436H167.387L167.483 377.892C167.653 377.604 167.877 377.337 168.155 377.092C168.432 376.836 168.763 376.633 169.147 376.484C169.541 376.324 169.989 376.244 170.491 376.244C171.269 376.244 171.947 376.431 172.523 376.804C173.109 377.177 173.563 377.684 173.883 378.324C174.203 378.953 174.363 379.673 174.363 380.484C174.363 381.295 174.197 382.02 173.867 382.66C173.547 383.289 173.099 383.785 172.523 384.148C171.947 384.511 171.264 384.692 170.475 384.692C169.792 384.692 169.189 384.548 168.667 384.26C168.155 383.961 167.76 383.545 167.483 383.012V388.02H166.363ZM170.395 383.716C170.949 383.716 171.435 383.583 171.851 383.316C172.277 383.049 172.613 382.676 172.859 382.196C173.104 381.705 173.227 381.129 173.227 380.468C173.227 379.817 173.104 379.247 172.859 378.756C172.613 378.265 172.277 377.887 171.851 377.62C171.435 377.353 170.949 377.22 170.395 377.22C169.84 377.22 169.344 377.353 168.907 377.62C168.48 377.887 168.144 378.265 167.899 378.756C167.664 379.236 167.547 379.807 167.547 380.468C167.547 381.119 167.664 381.689 167.899 382.18C168.144 382.671 168.48 383.049 168.907 383.316C169.344 383.583 169.84 383.716 170.395 383.716ZM180.691 384.5V376.436H181.715L181.795 377.652C182.04 377.204 182.381 376.857 182.819 376.612C183.256 376.367 183.741 376.244 184.275 376.244C184.669 376.244 185.037 376.303 185.379 376.42C185.72 376.537 186.019 376.713 186.275 376.948C186.541 377.183 186.749 377.487 186.899 377.86C187.165 377.359 187.539 376.964 188.019 376.676C188.509 376.388 189.032 376.244 189.587 376.244C190.205 376.244 190.739 376.367 191.187 376.612C191.645 376.857 192.003 377.231 192.259 377.732C192.515 378.233 192.643 378.868 192.643 379.636V384.5H191.523V379.764C191.523 378.911 191.347 378.276 190.995 377.86C190.643 377.433 190.152 377.22 189.523 377.22C189.096 377.22 188.707 377.337 188.355 377.572C188.003 377.796 187.725 378.127 187.523 378.564C187.32 378.991 187.219 379.524 187.219 380.164V384.5H186.099V379.764C186.099 378.911 185.923 378.276 185.571 377.86C185.229 377.433 184.744 377.22 184.115 377.22C183.677 377.22 183.283 377.337 182.931 377.572C182.589 377.796 182.317 378.132 182.115 378.58C181.912 379.017 181.811 379.561 181.811 380.212V384.5H180.691ZM198.305 384.692C197.569 384.692 196.903 384.521 196.305 384.18C195.719 383.828 195.255 383.337 194.913 382.708C194.572 382.068 194.401 381.327 194.401 380.484C194.401 379.609 194.572 378.857 194.913 378.228C195.265 377.599 195.74 377.113 196.337 376.772C196.935 376.42 197.601 376.244 198.337 376.244C199.105 376.244 199.783 376.42 200.369 376.772C200.956 377.113 201.42 377.599 201.761 378.228C202.103 378.857 202.273 379.609 202.273 380.484C202.273 381.327 202.097 382.068 201.745 382.708C201.404 383.337 200.935 383.828 200.337 384.18C199.751 384.521 199.073 384.692 198.305 384.692ZM198.321 383.732C198.823 383.732 199.281 383.609 199.697 383.364C200.124 383.119 200.465 382.756 200.721 382.276C200.988 381.785 201.121 381.183 201.121 380.468C201.121 379.743 200.993 379.14 200.737 378.66C200.481 378.18 200.14 377.823 199.713 377.588C199.297 377.343 198.839 377.22 198.337 377.22C197.857 377.22 197.404 377.343 196.977 377.588C196.551 377.833 196.204 378.196 195.937 378.676C195.681 379.145 195.553 379.743 195.553 380.468C195.553 381.183 195.681 381.785 195.937 382.276C196.193 382.756 196.529 383.119 196.945 383.364C197.372 383.609 197.831 383.732 198.321 383.732ZM204.191 384.5V376.436H205.215L205.295 377.988C205.465 377.615 205.695 377.3 205.983 377.044C206.271 376.788 206.617 376.591 207.023 376.452C207.428 376.313 207.887 376.244 208.399 376.244V377.412H207.967C207.625 377.412 207.295 377.46 206.975 377.556C206.655 377.641 206.372 377.791 206.127 378.004C205.881 378.217 205.684 378.505 205.535 378.868C205.385 379.231 205.311 379.684 205.311 380.228V384.5H204.191ZM213.084 384.692C212.338 384.692 211.676 384.516 211.1 384.164C210.535 383.812 210.087 383.321 209.756 382.692C209.436 382.052 209.276 381.305 209.276 380.452C209.276 379.599 209.436 378.857 209.756 378.228C210.076 377.599 210.524 377.113 211.1 376.772C211.687 376.42 212.359 376.244 213.116 376.244C213.895 376.244 214.551 376.42 215.084 376.772C215.628 377.124 216.039 377.583 216.316 378.148C216.604 378.713 216.748 379.332 216.748 380.004C216.748 380.111 216.748 380.223 216.748 380.34C216.748 380.447 216.743 380.575 216.732 380.724H210.124V379.78H215.66C215.639 378.959 215.383 378.324 214.892 377.876C214.412 377.428 213.804 377.204 213.068 377.204C212.588 377.204 212.14 377.316 211.724 377.54C211.319 377.753 210.988 378.073 210.732 378.5C210.487 378.916 210.364 379.444 210.364 380.084V380.5C210.364 381.225 210.492 381.828 210.748 382.308C211.004 382.788 211.34 383.145 211.756 383.38C212.183 383.615 212.626 383.732 213.084 383.732C213.692 383.732 214.194 383.599 214.588 383.332C214.983 383.055 215.266 382.676 215.436 382.196H216.54C216.402 382.665 216.178 383.092 215.868 383.476C215.57 383.86 215.186 384.159 214.716 384.372C214.247 384.585 213.703 384.692 213.084 384.692ZM225.948 384.692C225.308 384.692 224.742 384.585 224.252 384.372C223.772 384.159 223.382 383.855 223.084 383.46C222.796 383.055 222.62 382.575 222.556 382.02H223.708C223.772 382.329 223.894 382.612 224.076 382.868C224.268 383.124 224.524 383.332 224.844 383.492C225.164 383.641 225.542 383.716 225.98 383.716C226.385 383.716 226.716 383.657 226.972 383.54C227.238 383.412 227.436 383.247 227.564 383.044C227.702 382.831 227.772 382.596 227.772 382.34C227.772 381.988 227.686 381.716 227.516 381.524C227.356 381.321 227.121 381.172 226.812 381.076C226.502 380.98 226.129 380.889 225.692 380.804C225.329 380.74 224.982 380.655 224.652 380.548C224.321 380.441 224.022 380.303 223.756 380.132C223.5 379.961 223.297 379.748 223.148 379.492C222.998 379.225 222.924 378.916 222.924 378.564C222.924 378.105 223.036 377.705 223.26 377.364C223.494 377.012 223.825 376.74 224.252 376.548C224.678 376.345 225.18 376.244 225.756 376.244C226.577 376.244 227.249 376.452 227.772 376.868C228.294 377.273 228.598 377.871 228.684 378.66H227.564C227.521 378.223 227.34 377.876 227.02 377.62C226.7 377.364 226.268 377.236 225.724 377.236C225.19 377.236 224.78 377.348 224.492 377.572C224.214 377.785 224.076 378.079 224.076 378.452C224.076 378.687 224.15 378.889 224.3 379.06C224.449 379.231 224.668 379.38 224.956 379.508C225.254 379.625 225.617 379.727 226.044 379.812C226.556 379.908 227.025 380.036 227.452 380.196C227.889 380.345 228.241 380.58 228.508 380.9C228.785 381.209 228.924 381.652 228.924 382.228C228.934 382.708 228.817 383.135 228.572 383.508C228.326 383.881 227.98 384.175 227.532 384.388C227.084 384.591 226.556 384.692 225.948 384.692ZM230.909 388.02V376.436H231.933L232.029 377.892C232.2 377.604 232.424 377.337 232.701 377.092C232.979 376.836 233.309 376.633 233.693 376.484C234.088 376.324 234.536 376.244 235.037 376.244C235.816 376.244 236.493 376.431 237.069 376.804C237.656 377.177 238.109 377.684 238.429 378.324C238.749 378.953 238.909 379.673 238.909 380.484C238.909 381.295 238.744 382.02 238.413 382.66C238.093 383.289 237.645 383.785 237.069 384.148C236.493 384.511 235.811 384.692 235.021 384.692C234.339 384.692 233.736 384.548 233.213 384.26C232.701 383.961 232.307 383.545 232.029 383.012V388.02H230.909ZM234.941 383.716C235.496 383.716 235.981 383.583 236.397 383.316C236.824 383.049 237.16 382.676 237.405 382.196C237.651 381.705 237.773 381.129 237.773 380.468C237.773 379.817 237.651 379.247 237.405 378.756C237.16 378.265 236.824 377.887 236.397 377.62C235.981 377.353 235.496 377.22 234.941 377.22C234.387 377.22 233.891 377.353 233.453 377.62C233.027 377.887 232.691 378.265 232.445 378.756C232.211 379.236 232.093 379.807 232.093 380.468C232.093 381.119 232.211 381.689 232.445 382.18C232.691 382.671 233.027 383.049 233.453 383.316C233.891 383.583 234.387 383.716 234.941 383.716ZM243.407 384.692C242.757 384.692 242.213 384.575 241.775 384.34C241.349 384.105 241.029 383.801 240.815 383.428C240.613 383.055 240.511 382.644 240.511 382.196C240.511 381.641 240.65 381.172 240.927 380.788C241.215 380.404 241.615 380.116 242.127 379.924C242.639 379.732 243.237 379.636 243.919 379.636H246.095C246.095 379.113 246.015 378.671 245.855 378.308C245.695 377.945 245.461 377.673 245.151 377.492C244.842 377.3 244.453 377.204 243.983 377.204C243.439 377.204 242.97 377.343 242.575 377.62C242.181 377.897 241.935 378.303 241.839 378.836H240.671C240.735 378.271 240.927 377.796 241.247 377.412C241.578 377.028 241.983 376.74 242.463 376.548C242.943 376.345 243.45 376.244 243.983 376.244C244.73 376.244 245.338 376.388 245.807 376.676C246.277 376.953 246.629 377.337 246.863 377.828C247.098 378.319 247.215 378.884 247.215 379.524V384.5H246.191L246.127 383.028C246.031 383.252 245.898 383.465 245.727 383.668C245.567 383.871 245.375 384.047 245.151 384.196C244.938 384.345 244.687 384.463 244.399 384.548C244.111 384.644 243.781 384.692 243.407 384.692ZM243.535 383.716C243.93 383.716 244.282 383.636 244.591 383.476C244.911 383.305 245.183 383.087 245.407 382.82C245.631 382.553 245.802 382.255 245.919 381.924C246.037 381.583 246.095 381.231 246.095 380.868V380.58H243.999C243.434 380.58 242.981 380.649 242.639 380.788C242.298 380.927 242.053 381.113 241.903 381.348C241.754 381.583 241.679 381.855 241.679 382.164C241.679 382.473 241.749 382.745 241.887 382.98C242.026 383.204 242.234 383.385 242.511 383.524C242.799 383.652 243.141 383.716 243.535 383.716ZM252.883 384.692C252.137 384.692 251.47 384.516 250.883 384.164C250.297 383.812 249.833 383.321 249.491 382.692C249.15 382.052 248.979 381.316 248.979 380.484C248.979 379.62 249.15 378.879 249.491 378.26C249.833 377.631 250.297 377.14 250.883 376.788C251.481 376.425 252.147 376.244 252.883 376.244C253.822 376.244 254.601 376.489 255.219 376.98C255.849 377.46 256.249 378.1 256.419 378.9H255.299C255.182 378.367 254.899 377.956 254.451 377.668C254.014 377.369 253.486 377.22 252.867 377.22C252.387 377.22 251.939 377.343 251.523 377.588C251.107 377.823 250.771 378.18 250.515 378.66C250.259 379.14 250.131 379.748 250.131 380.484C250.131 381.028 250.206 381.503 250.355 381.908C250.505 382.313 250.707 382.655 250.963 382.932C251.219 383.199 251.513 383.401 251.843 383.54C252.174 383.679 252.515 383.748 252.867 383.748C253.273 383.748 253.641 383.684 253.971 383.556C254.313 383.417 254.601 383.22 254.835 382.964C255.07 382.708 255.225 382.399 255.299 382.036H256.419C256.259 382.815 255.865 383.455 255.235 383.956C254.606 384.447 253.822 384.692 252.883 384.692ZM261.803 384.692C261.056 384.692 260.395 384.516 259.819 384.164C259.254 383.812 258.806 383.321 258.475 382.692C258.155 382.052 257.995 381.305 257.995 380.452C257.995 379.599 258.155 378.857 258.475 378.228C258.795 377.599 259.243 377.113 259.819 376.772C260.406 376.42 261.078 376.244 261.835 376.244C262.614 376.244 263.27 376.42 263.803 376.772C264.347 377.124 264.758 377.583 265.035 378.148C265.323 378.713 265.467 379.332 265.467 380.004C265.467 380.111 265.467 380.223 265.467 380.34C265.467 380.447 265.462 380.575 265.451 380.724H258.843V379.78H264.379C264.358 378.959 264.102 378.324 263.611 377.876C263.131 377.428 262.523 377.204 261.787 377.204C261.307 377.204 260.859 377.316 260.443 377.54C260.038 377.753 259.707 378.073 259.451 378.5C259.206 378.916 259.083 379.444 259.083 380.084V380.5C259.083 381.225 259.211 381.828 259.467 382.308C259.723 382.788 260.059 383.145 260.475 383.38C260.902 383.615 261.344 383.732 261.803 383.732C262.411 383.732 262.912 383.599 263.307 383.332C263.702 383.055 263.984 382.676 264.155 382.196H265.259C265.12 382.665 264.896 383.092 264.587 383.476C264.288 383.86 263.904 384.159 263.435 384.372C262.966 384.585 262.422 384.692 261.803 384.692ZM267.668 384.58C267.433 384.58 267.236 384.5 267.076 384.34C266.927 384.18 266.852 383.983 266.852 383.748C266.852 383.513 266.927 383.321 267.076 383.172C267.236 383.012 267.433 382.932 267.668 382.932C267.903 382.932 268.095 383.012 268.244 383.172C268.404 383.321 268.484 383.519 268.484 383.764C268.484 383.988 268.404 384.18 268.244 384.34C268.095 384.5 267.903 384.58 267.668 384.58Z" fill="#C8D0FF"/>
<mask id="path-6-outside-1_477_10236" maskUnits="userSpaceOnUse" x="55.1387" y="60.3198" width="208.052" height="200.045" fill="black">
<rect fill="white" x="55.1387" y="60.3198" width="208.052" height="200.045"/>
<path d="M101.762 199.753C97.5595 201.864 92.3927 200.18 90.7586 195.77C87.1883 186.135 85.5713 175.855 86.0363 165.533C86.6294 152.367 90.5902 139.573 97.5399 128.375C104.49 117.177 114.196 107.948 125.731 101.573C137.265 95.1971 150.243 91.8872 163.422 91.9594C176.601 92.0316 189.542 95.4835 201.006 101.985C212.47 108.487 222.075 117.821 228.901 129.095C235.728 140.368 239.548 153.205 239.997 166.377C240.349 176.703 238.619 186.964 234.944 196.56C233.261 200.951 228.077 202.579 223.897 200.423C219.718 198.266 218.141 193.141 219.685 188.699C222.104 181.739 223.228 174.369 222.976 166.957C222.626 156.697 219.65 146.698 214.333 137.916C209.015 129.135 201.534 121.864 192.604 116.8C183.674 111.736 173.595 109.047 163.329 108.99C153.063 108.934 142.954 111.512 133.97 116.479C124.985 121.445 117.424 128.633 112.011 137.356C106.598 146.078 103.512 156.044 103.05 166.3C102.717 173.709 103.76 181.09 106.102 188.076C107.597 192.536 105.965 197.643 101.762 199.753Z"/>
</mask>
<path d="M101.762 199.753C97.5595 201.864 92.3927 200.18 90.7586 195.77C87.1883 186.135 85.5713 175.855 86.0363 165.533C86.6294 152.367 90.5902 139.573 97.5399 128.375C104.49 117.177 114.196 107.948 125.731 101.573C137.265 95.1971 150.243 91.8872 163.422 91.9594C176.601 92.0316 189.542 95.4835 201.006 101.985C212.47 108.487 222.075 117.821 228.901 129.095C235.728 140.368 239.548 153.205 239.997 166.377C240.349 176.703 238.619 186.964 234.944 196.56C233.261 200.951 228.077 202.579 223.897 200.423C219.718 198.266 218.141 193.141 219.685 188.699C222.104 181.739 223.228 174.369 222.976 166.957C222.626 156.697 219.65 146.698 214.333 137.916C209.015 129.135 201.534 121.864 192.604 116.8C183.674 111.736 173.595 109.047 163.329 108.99C153.063 108.934 142.954 111.512 133.97 116.479C124.985 121.445 117.424 128.633 112.011 137.356C106.598 146.078 103.512 156.044 103.05 166.3C102.717 173.709 103.76 181.09 106.102 188.076C107.597 192.536 105.965 197.643 101.762 199.753Z" fill="#BEB6D1"/>
<path d="M101.762 199.753C97.5595 201.864 92.3927 200.18 90.7586 195.77C87.1883 186.135 85.5713 175.855 86.0363 165.533C86.6294 152.367 90.5902 139.573 97.5399 128.375C104.49 117.177 114.196 107.948 125.731 101.573C137.265 95.1971 150.243 91.8872 163.422 91.9594C176.601 92.0316 189.542 95.4835 201.006 101.985C212.47 108.487 222.075 117.821 228.901 129.095C235.728 140.368 239.548 153.205 239.997 166.377C240.349 176.703 238.619 186.964 234.944 196.56C233.261 200.951 228.077 202.579 223.897 200.423C219.718 198.266 218.141 193.141 219.685 188.699C222.104 181.739 223.228 174.369 222.976 166.957C222.626 156.697 219.65 146.698 214.333 137.916C209.015 129.135 201.534 121.864 192.604 116.8C183.674 111.736 173.595 109.047 163.329 108.99C153.063 108.934 142.954 111.512 133.97 116.479C124.985 121.445 117.424 128.633 112.011 137.356C106.598 146.078 103.512 156.044 103.05 166.3C102.717 173.709 103.76 181.09 106.102 188.076C107.597 192.536 105.965 197.643 101.762 199.753Z" stroke="#E0DBE9" stroke-opacity="0.11" stroke-width="6" mask="url(#path-6-outside-1_477_10236)"/>
<path d="M101.762 199.753C97.5595 201.864 92.3927 200.18 90.7586 195.77C87.1888 186.136 85.5717 175.857 86.0361 165.537C86.6285 152.372 90.5879 139.579 97.5359 128.381C104.484 117.183 114.188 107.955 125.721 101.578C137.253 95.2016 150.229 91.8897 163.407 91.9593C176.585 92.0289 189.525 95.4776 200.989 101.976C212.454 108.474 222.06 117.804 228.89 129.075C235.719 140.346 239.543 153.179 239.996 166.35C240.352 176.675 238.626 186.936 234.955 196.531C233.274 200.924 228.09 202.553 223.91 200.398C219.729 198.243 218.151 193.119 219.693 188.676C222.109 181.716 223.23 174.347 222.975 166.936C222.622 156.677 219.643 146.68 214.324 137.901C209.004 129.122 201.521 121.854 192.591 116.793C183.661 111.731 173.582 109.045 163.317 108.99C153.052 108.936 142.945 111.516 133.962 116.483C124.979 121.45 117.42 128.638 112.008 137.361C106.596 146.083 103.512 156.048 103.05 166.302C102.717 173.711 103.76 181.091 106.102 188.076C107.597 192.536 105.965 197.643 101.762 199.753Z" fill="#2FF8A1"/>
<g filter="url(#filter1_d_477_10236)">
<rect x="129" y="155" width="68" height="28" rx="6" fill="#3DA1C0" shape-rendering="crispEdges"/>
<rect x="130" y="156" width="66" height="26" rx="5" stroke="#3997B4" stroke-width="2" shape-rendering="crispEdges"/>
<path d="M165.279 175.214C164.123 175.214 163.099 174.957 162.206 174.442C161.325 173.915 160.633 173.189 160.129 172.262C159.626 171.323 159.374 170.236 159.374 169C159.374 167.775 159.626 166.7 160.129 165.773C160.633 164.834 161.325 164.102 162.206 163.575C163.099 163.049 164.123 162.786 165.279 162.786C166.458 162.786 167.494 163.049 168.386 163.575C169.279 164.102 169.971 164.834 170.463 165.773C170.956 166.7 171.202 167.775 171.202 169C171.202 170.236 170.956 171.323 170.463 172.262C169.971 173.189 169.279 173.915 168.386 174.442C167.494 174.957 166.458 175.214 165.279 175.214ZM165.296 173.36C166.063 173.36 166.733 173.189 167.305 172.845C167.877 172.49 168.318 171.987 168.627 171.335C168.936 170.682 169.09 169.904 169.09 169C169.09 168.096 168.936 167.318 168.627 166.665C168.318 166.013 167.877 165.515 167.305 165.172C166.733 164.817 166.063 164.64 165.296 164.64C164.53 164.64 163.86 164.817 163.288 165.172C162.716 165.515 162.269 166.013 161.949 166.665C161.64 167.318 161.485 168.096 161.485 169C161.485 169.904 161.64 170.682 161.949 171.335C162.269 171.987 162.716 172.49 163.288 172.845C163.86 173.189 164.53 173.36 165.296 173.36Z" fill="#ECEFFD"/>
<path d="M149.158 175.008V162.992H153.467C154.417 162.992 155.201 163.158 155.819 163.49C156.448 163.81 156.912 164.245 157.209 164.794C157.518 165.332 157.673 165.944 157.673 166.631C157.673 167.272 157.524 167.867 157.226 168.416C156.929 168.966 156.465 169.406 155.836 169.738C155.206 170.07 154.4 170.236 153.415 170.236H151.218V175.008H149.158ZM155.424 175.008L152.9 169.704H155.132L157.776 175.008H155.424ZM151.218 168.708H153.33C154.096 168.708 154.657 168.525 155.012 168.159C155.378 167.781 155.561 167.289 155.561 166.683C155.561 166.087 155.384 165.613 155.029 165.258C154.674 164.892 154.108 164.708 153.33 164.708H151.218V168.708Z" fill="#ECEFFD"/>
<path d="M138.798 175.008V162.992H143.124C144.085 162.992 144.88 163.158 145.51 163.49C146.139 163.81 146.608 164.245 146.917 164.794C147.226 165.344 147.381 165.973 147.381 166.683C147.381 167.346 147.232 167.959 146.935 168.519C146.637 169.069 146.174 169.515 145.544 169.858C144.915 170.19 144.108 170.356 143.124 170.356H140.858V175.008H138.798ZM140.858 168.674H143.004C143.816 168.674 144.4 168.496 144.755 168.142C145.109 167.775 145.287 167.289 145.287 166.683C145.287 166.053 145.109 165.561 144.755 165.206C144.4 164.851 143.816 164.674 143.004 164.674H140.858V168.674Z" fill="#ECEFFD"/>
<g clip-path="url(#clip1_477_10236)">
<path d="M181.702 161.5L183.891 166.195L188.786 166.953L185.244 170.605L186.08 175.765L181.702 173.328L177.325 175.765L178.161 170.605L174.619 166.953L179.514 166.195L181.702 161.5Z" fill="#ECEFFD" stroke="#ECEFFD" stroke-width="2" stroke-linecap="round" stroke-linejoin="round"/>
</g>
</g>
<circle cx="163" cy="168" r="209.5" stroke="url(#paint0_radial_477_10236)" stroke-opacity="0.09" stroke-width="65"/>
<circle cx="163" cy="168" r="154.5" stroke="url(#paint1_radial_477_10236)" stroke-opacity="0.09" stroke-width="65"/>
<path d="M217.874 217V211.13L216.654 211.44V210.69L218.244 210H218.894V217H217.874ZM223.085 217.12C222.465 217.12 221.932 216.97 221.485 216.67C221.038 216.363 220.695 215.94 220.455 215.4C220.215 214.853 220.095 214.22 220.095 213.5C220.095 212.78 220.215 212.15 220.455 211.61C220.695 211.063 221.038 210.64 221.485 210.34C221.932 210.033 222.465 209.88 223.085 209.88C223.705 209.88 224.235 210.033 224.675 210.34C225.122 210.64 225.462 211.063 225.695 211.61C225.935 212.15 226.055 212.78 226.055 213.5C226.055 214.22 225.935 214.853 225.695 215.4C225.462 215.94 225.122 216.363 224.675 216.67C224.235 216.97 223.705 217.12 223.085 217.12ZM223.085 216.23C223.458 216.23 223.792 216.12 224.085 215.9C224.385 215.68 224.618 215.367 224.785 214.96C224.952 214.553 225.035 214.067 225.035 213.5C225.035 212.933 224.952 212.447 224.785 212.04C224.618 211.633 224.385 211.323 224.085 211.11C223.792 210.89 223.458 210.78 223.085 210.78C222.705 210.78 222.365 210.89 222.065 211.11C221.765 211.323 221.532 211.633 221.365 212.04C221.198 212.447 221.115 212.933 221.115 213.5C221.115 214.067 221.198 214.553 221.365 214.96C221.532 215.367 221.765 215.68 222.065 215.9C222.365 216.12 222.705 216.23 223.085 216.23ZM229.989 217.12C229.369 217.12 228.836 216.97 228.389 216.67C227.943 216.363 227.599 215.94 227.359 215.4C227.119 214.853 226.999 214.22 226.999 213.5C226.999 212.78 227.119 212.15 227.359 211.61C227.599 211.063 227.943 210.64 228.389 210.34C228.836 210.033 229.369 209.88 229.989 209.88C230.609 209.88 231.139 210.033 231.579 210.34C232.026 210.64 232.366 211.063 232.599 211.61C232.839 212.15 232.959 212.78 232.959 213.5C232.959 214.22 232.839 214.853 232.599 215.4C232.366 215.94 232.026 216.363 231.579 216.67C231.139 216.97 230.609 217.12 229.989 217.12ZM229.989 216.23C230.363 216.23 230.696 216.12 230.989 215.9C231.289 215.68 231.523 215.367 231.689 214.96C231.856 214.553 231.939 214.067 231.939 213.5C231.939 212.933 231.856 212.447 231.689 212.04C231.523 211.633 231.289 211.323 230.989 211.11C230.696 210.89 230.363 210.78 229.989 210.78C229.609 210.78 229.269 210.89 228.969 211.11C228.669 211.323 228.436 211.633 228.269 212.04C228.103 212.447 228.019 212.933 228.019 213.5C228.019 214.067 228.103 214.553 228.269 214.96C228.436 215.367 228.669 215.68 228.969 215.9C229.269 216.12 229.609 216.23 229.989 216.23ZM235.014 217L239.034 210H240.024L236.004 217H235.014ZM239.614 217.12C239.3 217.12 239.02 217.05 238.774 216.91C238.527 216.77 238.33 216.573 238.184 216.32C238.037 216.06 237.964 215.757 237.964 215.41C237.964 215.05 238.037 214.743 238.184 214.49C238.33 214.237 238.527 214.04 238.774 213.9C239.02 213.76 239.297 213.69 239.604 213.69C239.924 213.69 240.204 213.76 240.444 213.9C240.69 214.04 240.884 214.237 241.024 214.49C241.17 214.743 241.244 215.05 241.244 215.41C241.244 215.757 241.17 216.06 241.024 216.32C240.884 216.573 240.69 216.77 240.444 216.91C240.197 217.05 239.92 217.12 239.614 217.12ZM239.594 216.38C239.747 216.38 239.884 216.343 240.004 216.27C240.13 216.197 240.23 216.09 240.304 215.95C240.384 215.803 240.424 215.62 240.424 215.4C240.424 215.18 240.387 215 240.314 214.86C240.24 214.713 240.14 214.603 240.014 214.53C239.894 214.457 239.757 214.42 239.604 214.42C239.464 214.42 239.33 214.457 239.204 214.53C239.077 214.603 238.974 214.713 238.894 214.86C238.82 215 238.784 215.18 238.784 215.4C238.784 215.62 238.82 215.803 238.894 215.95C238.974 216.09 239.074 216.197 239.194 216.27C239.32 216.343 239.454 216.38 239.594 216.38ZM235.494 213.32C235.187 213.32 234.91 213.25 234.664 213.11C234.417 212.97 234.217 212.773 234.064 212.52C233.917 212.26 233.844 211.953 233.844 211.6C233.844 211.247 233.917 210.943 234.064 210.69C234.217 210.437 234.417 210.24 234.664 210.1C234.917 209.96 235.197 209.89 235.504 209.89C235.81 209.89 236.087 209.96 236.334 210.1C236.58 210.24 236.774 210.437 236.914 210.69C237.06 210.943 237.134 211.247 237.134 211.6C237.134 211.953 237.06 212.26 236.914 212.52C236.774 212.773 236.577 212.97 236.324 213.11C236.077 213.25 235.8 213.32 235.494 213.32ZM235.494 212.58C235.64 212.58 235.774 212.543 235.894 212.47C236.02 212.397 236.12 212.29 236.194 212.15C236.267 212.003 236.304 211.82 236.304 211.6C236.304 211.38 236.267 211.197 236.194 211.05C236.12 210.903 236.02 210.793 235.894 210.72C235.774 210.647 235.644 210.61 235.504 210.61C235.357 210.61 235.217 210.647 235.084 210.72C234.957 210.793 234.854 210.903 234.774 211.05C234.7 211.197 234.664 211.38 234.664 211.6C234.664 211.813 234.7 211.993 234.774 212.14C234.854 212.287 234.957 212.397 235.084 212.47C235.21 212.543 235.347 212.58 235.494 212.58Z" fill="white"/>
<path d="M97.8965 217.12C97.2765 217.12 96.7432 216.97 96.2965 216.67C95.8499 216.363 95.5065 215.94 95.2665 215.4C95.0265 214.853 94.9065 214.22 94.9065 213.5C94.9065 212.78 95.0265 212.15 95.2665 211.61C95.5065 211.063 95.8499 210.64 96.2965 210.34C96.7432 210.033 97.2765 209.88 97.8965 209.88C98.5165 209.88 99.0465 210.033 99.4865 210.34C99.9332 210.64 100.273 211.063 100.507 211.61C100.747 212.15 100.867 212.78 100.867 213.5C100.867 214.22 100.747 214.853 100.507 215.4C100.273 215.94 99.9332 216.363 99.4865 216.67C99.0465 216.97 98.5165 217.12 97.8965 217.12ZM97.8965 216.23C98.2699 216.23 98.6032 216.12 98.8965 215.9C99.1965 215.68 99.4299 215.367 99.5965 214.96C99.7632 214.553 99.8465 214.067 99.8465 213.5C99.8465 212.933 99.7632 212.447 99.5965 212.04C99.4299 211.633 99.1965 211.323 98.8965 211.11C98.6032 210.89 98.2699 210.78 97.8965 210.78C97.5165 210.78 97.1765 210.89 96.8765 211.11C96.5765 211.323 96.3432 211.633 96.1765 212.04C96.0099 212.447 95.9265 212.933 95.9265 213.5C95.9265 214.067 96.0099 214.553 96.1765 214.96C96.3432 215.367 96.5765 215.68 96.8765 215.9C97.1765 216.12 97.5165 216.23 97.8965 216.23ZM102.921 217L106.941 210H107.931L103.911 217H102.921ZM107.521 217.12C107.207 217.12 106.927 217.05 106.681 216.91C106.434 216.77 106.237 216.573 106.091 216.32C105.944 216.06 105.871 215.757 105.871 215.41C105.871 215.05 105.944 214.743 106.091 214.49C106.237 214.237 106.434 214.04 106.681 213.9C106.927 213.76 107.204 213.69 107.511 213.69C107.831 213.69 108.111 213.76 108.351 213.9C108.597 214.04 108.791 214.237 108.931 214.49C109.077 214.743 109.151 215.05 109.151 215.41C109.151 215.757 109.077 216.06 108.931 216.32C108.791 216.573 108.597 216.77 108.351 216.91C108.104 217.05 107.827 217.12 107.521 217.12ZM107.501 216.38C107.654 216.38 107.791 216.343 107.911 216.27C108.037 216.197 108.137 216.09 108.211 215.95C108.291 215.803 108.331 215.62 108.331 215.4C108.331 215.18 108.294 215 108.221 214.86C108.147 214.713 108.047 214.603 107.921 214.53C107.801 214.457 107.664 214.42 107.511 214.42C107.371 214.42 107.237 214.457 107.111 214.53C106.984 214.603 106.881 214.713 106.801 214.86C106.727 215 106.691 215.18 106.691 215.4C106.691 215.62 106.727 215.803 106.801 215.95C106.881 216.09 106.981 216.197 107.101 216.27C107.227 216.343 107.361 216.38 107.501 216.38ZM103.401 213.32C103.094 213.32 102.817 213.25 102.571 213.11C102.324 212.97 102.124 212.773 101.971 212.52C101.824 212.26 101.751 211.953 101.751 211.6C101.751 211.247 101.824 210.943 101.971 210.69C102.124 210.437 102.324 210.24 102.571 210.1C102.824 209.96 103.104 209.89 103.411 209.89C103.717 209.89 103.994 209.96 104.241 210.1C104.487 210.24 104.681 210.437 104.821 210.69C104.967 210.943 105.041 211.247 105.041 211.6C105.041 211.953 104.967 212.26 104.821 212.52C104.681 212.773 104.484 212.97 104.231 213.11C103.984 213.25 103.707 213.32 103.401 213.32ZM103.401 212.58C103.547 212.58 103.681 212.543 103.801 212.47C103.927 212.397 104.027 212.29 104.101 212.15C104.174 212.003 104.211 211.82 104.211 211.6C104.211 211.38 104.174 211.197 104.101 211.05C104.027 210.903 103.927 210.793 103.801 210.72C103.681 210.647 103.551 210.61 103.411 210.61C103.264 210.61 103.124 210.647 102.991 210.72C102.864 210.793 102.761 210.903 102.681 211.05C102.607 211.197 102.571 211.38 102.571 211.6C102.571 211.813 102.607 211.993 102.681 212.14C102.761 212.287 102.864 212.397 102.991 212.47C103.117 212.543 103.254 212.58 103.401 212.58Z" fill="white"/>
<path d="M145.768 451.216C144.58 451.216 143.542 450.946 142.654 450.406C141.766 449.866 141.076 449.11 140.584 448.138C140.092 447.166 139.846 446.032 139.846 444.736C139.846 443.452 140.092 442.318 140.584 441.334C141.088 440.35 141.802 439.582 142.726 439.03C143.662 438.466 144.766 438.184 146.038 438.184C147.466 438.184 148.66 438.532 149.62 439.228C150.58 439.912 151.198 440.866 151.474 442.09H149.422C149.242 441.394 148.864 440.848 148.288 440.452C147.712 440.044 146.956 439.84 146.02 439.84C145.132 439.84 144.358 440.038 143.698 440.434C143.05 440.83 142.552 441.394 142.204 442.126C141.856 442.858 141.682 443.728 141.682 444.736C141.682 445.756 141.856 446.632 142.204 447.364C142.552 448.096 143.044 448.654 143.68 449.038C144.316 449.422 145.048 449.614 145.876 449.614C147.148 449.614 148.102 449.248 148.738 448.516C149.386 447.784 149.764 446.806 149.872 445.582H146.398V444.196H151.69V451H150.052L149.89 449.074C149.602 449.542 149.266 449.938 148.882 450.262C148.51 450.574 148.072 450.814 147.568 450.982C147.064 451.138 146.464 451.216 145.768 451.216ZM158.11 451.216C157.258 451.216 156.49 451.018 155.806 450.622C155.134 450.226 154.6 449.674 154.204 448.966C153.82 448.246 153.628 447.418 153.628 446.482C153.628 445.522 153.826 444.688 154.222 443.98C154.618 443.26 155.158 442.702 155.842 442.306C156.526 441.91 157.294 441.712 158.146 441.712C159.01 441.712 159.778 441.91 160.45 442.306C161.122 442.702 161.65 443.254 162.034 443.962C162.43 444.67 162.628 445.504 162.628 446.464C162.628 447.424 162.43 448.258 162.034 448.966C161.65 449.674 161.116 450.226 160.432 450.622C159.748 451.018 158.974 451.216 158.11 451.216ZM158.11 449.668C158.602 449.668 159.046 449.548 159.442 449.308C159.85 449.068 160.174 448.714 160.414 448.246C160.666 447.766 160.792 447.172 160.792 446.464C160.792 445.756 160.672 445.168 160.432 444.7C160.192 444.22 159.868 443.86 159.46 443.62C159.064 443.38 158.626 443.26 158.146 443.26C157.666 443.26 157.222 443.38 156.814 443.62C156.406 443.86 156.076 444.22 155.824 444.7C155.584 445.168 155.464 445.756 155.464 446.464C155.464 447.172 155.584 447.766 155.824 448.246C156.076 448.714 156.4 449.068 156.796 449.308C157.204 449.548 157.642 449.668 158.11 449.668ZM168.138 451C167.562 451 167.064 450.91 166.644 450.73C166.224 450.55 165.9 450.25 165.672 449.83C165.444 449.41 165.33 448.84 165.33 448.12V443.458H163.764V441.928H165.33L165.546 439.66H167.13V441.928H169.704V443.458H167.13V448.138C167.13 448.654 167.238 449.008 167.454 449.2C167.67 449.38 168.042 449.47 168.57 449.47H169.614V451H168.138ZM176.384 451V438.4H178.184V451H176.384ZM184.468 451C183.892 451 183.394 450.91 182.974 450.73C182.554 450.55 182.23 450.25 182.002 449.83C181.774 449.41 181.66 448.84 181.66 448.12V443.458H180.094V441.928H181.66L181.876 439.66H183.46V441.928H186.034V443.458H183.46V448.138C183.46 448.654 183.568 449.008 183.784 449.2C184 449.38 184.372 449.47 184.9 449.47H185.944V451H184.468Z" fill="#EDFAFE"/>
</g>
<rect x="0.5" y="0.5" width="325" height="482" rx="19.5" stroke="#BEB6D1" stroke-opacity="0.41"/>
<defs>
<filter id="filter0_df_477_10236" x="-352.556" y="-564" width="1031.11" height="975" filterUnits="userSpaceOnUse" color-interpolation-filters="sRGB">
<feFlood flood-opacity="0" result="BackgroundImageFix"/>
<feColorMatrix in="SourceAlpha" type="matrix" values="0 0 0 0 0 0 0 0 0 0 0 0 0 0 0 0 0 0 127 0" result="hardAlpha"/>
<feOffset/>
<feGaussianBlur stdDeviation="40"/>
<feComposite in2="hardAlpha" operator="out"/>
<feColorMatrix type="matrix" values="0 0 0 0 0.788235 0 0 0 0 0.698039 0 0 0 0 0.780392 0 0 0 1 0"/>
<feBlend mode="normal" in2="BackgroundImageFix" result="effect1_dropShadow_477_10236"/>
<feBlend mode="normal" in="SourceGraphic" in2="effect1_dropShadow_477_10236" result="shape"/>
<feGaussianBlur stdDeviation="120" result="effect2_foregroundBlur_477_10236"/>
</filter>
<filter id="filter1_d_477_10236" x="85" y="111" width="156" height="116" filterUnits="userSpaceOnUse" color-interpolation-filters="sRGB">
<feFlood flood-opacity="0" result="BackgroundImageFix"/>
<feColorMatrix in="SourceAlpha" type="matrix" values="0 0 0 0 0 0 0 0 0 0 0 0 0 0 0 0 0 0 127 0" result="hardAlpha"/>
<feOffset/>
<feGaussianBlur stdDeviation="22"/>
<feComposite in2="hardAlpha" operator="out"/>
<feColorMatrix type="matrix" values="0 0 0 0 0.998692 0 0 0 0 0.822925 0 0 0 0 0.496501 0 0 0 0.7 0"/>
<feBlend mode="normal" in2="BackgroundImageFix" result="effect1_dropShadow_477_10236"/>
<feBlend mode="normal" in="SourceGraphic" in2="effect1_dropShadow_477_10236" result="shape"/>
</filter>
<radialGradient id="paint0_radial_477_10236" cx="0" cy="0" r="1" gradientUnits="userSpaceOnUse" gradientTransform="translate(163 168) rotate(92.283) scale(240.177)">
<stop stop-color="#FFF5C8"/>
<stop offset="0.774038" stop-color="#FFF5C8"/>
<stop offset="1" stop-color="#FFF5C8" stop-opacity="0"/>
</radialGradient>
<radialGradient id="paint1_radial_477_10236" cx="0" cy="0" r="1" gradientUnits="userSpaceOnUse" gradientTransform="translate(163 168) rotate(92.283) scale(165.546)">
<stop stop-color="#FFF5C8"/>
<stop offset="0.774038" stop-color="#FFF5C8"/>
<stop offset="1" stop-color="#FFF5C8" stop-opacity="0"/>
</radialGradient>
<clipPath id="clip0_477_10236">
<rect width="326" height="483" rx="20" fill="white"/>
</clipPath>
<clipPath id="clip1_477_10236">
<rect width="17" height="18" fill="white" transform="translate(173.202 160)"/>
</clipPath>
</defs>
</svg>
